<mxfile host="app.diagrams.net" agent="Mozilla/5.0 (Windows NT 10.0; Win64; x64) AppleWebKit/537.36 (KHTML, like Gecko) Chrome/140.0.0.0 Safari/537.36" version="28.1.1">
  <diagram name="Página-1" id="b8xh_nXPLrD9lWL5ZcE7">
    <mxGraphModel grid="1" page="1" gridSize="10" guides="1" tooltips="1" connect="1" arrows="1" fold="1" pageScale="1" pageWidth="827" pageHeight="1169" background="none" math="0" shadow="0">
      <root>
        <mxCell id="0" />
        <mxCell id="1" parent="0" />
        <mxCell id="pE_-tYmXkupXlst4wEmA-50" style="edgeStyle=orthogonalEdgeStyle;rounded=0;orthogonalLoop=1;jettySize=auto;html=1;exitX=0.5;exitY=1;exitDx=0;exitDy=0;entryX=0.5;entryY=0;entryDx=0;entryDy=0;endArrow=none;endFill=0;" edge="1" parent="1" source="pE_-tYmXkupXlst4wEmA-19" target="pE_-tYmXkupXlst4wEmA-49">
          <mxGeometry relative="1" as="geometry">
            <Array as="points">
              <mxPoint y="434" />
              <mxPoint y="459" />
              <mxPoint x="-130" y="459" />
            </Array>
          </mxGeometry>
        </mxCell>
        <mxCell id="pE_-tYmXkupXlst4wEmA-19" value="Usuario" style="whiteSpace=wrap;html=1;align=center;" vertex="1" parent="1">
          <mxGeometry x="-35" y="404" width="80" height="30" as="geometry" />
        </mxCell>
        <mxCell id="pE_-tYmXkupXlst4wEmA-54" style="edgeStyle=orthogonalEdgeStyle;rounded=0;orthogonalLoop=1;jettySize=auto;html=1;exitX=0.5;exitY=1;exitDx=0;exitDy=0;endArrow=none;endFill=0;strokeColor=default;" edge="1" parent="1" source="pE_-tYmXkupXlst4wEmA-28" target="pE_-tYmXkupXlst4wEmA-53">
          <mxGeometry relative="1" as="geometry">
            <Array as="points">
              <mxPoint x="445" y="460" />
              <mxPoint x="600" y="460" />
            </Array>
          </mxGeometry>
        </mxCell>
        <mxCell id="pE_-tYmXkupXlst4wEmA-58" style="edgeStyle=orthogonalEdgeStyle;rounded=0;orthogonalLoop=1;jettySize=auto;html=1;exitX=1;exitY=0.5;exitDx=0;exitDy=0;entryX=0;entryY=0.5;entryDx=0;entryDy=0;endArrow=none;endFill=0;" edge="1" parent="1" source="pE_-tYmXkupXlst4wEmA-28" target="pE_-tYmXkupXlst4wEmA-57">
          <mxGeometry relative="1" as="geometry" />
        </mxCell>
        <mxCell id="pE_-tYmXkupXlst4wEmA-28" value="Pedido" style="whiteSpace=wrap;html=1;align=center;" vertex="1" parent="1">
          <mxGeometry x="410" y="410" width="70" height="30" as="geometry" />
        </mxCell>
        <mxCell id="pE_-tYmXkupXlst4wEmA-32" style="edgeStyle=orthogonalEdgeStyle;rounded=0;orthogonalLoop=1;jettySize=auto;html=1;exitX=0;exitY=0.5;exitDx=0;exitDy=0;entryX=1;entryY=0.5;entryDx=0;entryDy=0;endArrow=none;endFill=0;" edge="1" parent="1" source="pE_-tYmXkupXlst4wEmA-29" target="pE_-tYmXkupXlst4wEmA-19">
          <mxGeometry relative="1" as="geometry">
            <mxPoint x="105" y="419" as="sourcePoint" />
          </mxGeometry>
        </mxCell>
        <mxCell id="pE_-tYmXkupXlst4wEmA-33" style="edgeStyle=orthogonalEdgeStyle;rounded=0;orthogonalLoop=1;jettySize=auto;html=1;exitX=1;exitY=0.5;exitDx=0;exitDy=0;endArrow=none;endFill=0;entryX=0;entryY=0.5;entryDx=0;entryDy=0;" edge="1" parent="1" source="pE_-tYmXkupXlst4wEmA-29" target="pE_-tYmXkupXlst4wEmA-28">
          <mxGeometry relative="1" as="geometry">
            <Array as="points">
              <mxPoint x="270" y="420" />
              <mxPoint x="300" y="420" />
              <mxPoint x="300" y="460" />
              <mxPoint x="400" y="460" />
              <mxPoint x="400" y="425" />
            </Array>
          </mxGeometry>
        </mxCell>
        <mxCell id="pE_-tYmXkupXlst4wEmA-29" value="Realiza" style="shape=rhombus;perimeter=rhombusPerimeter;whiteSpace=wrap;html=1;align=center;" vertex="1" parent="1">
          <mxGeometry x="210" y="398" width="60" height="40" as="geometry" />
        </mxCell>
        <mxCell id="pE_-tYmXkupXlst4wEmA-34" value="Cita" style="whiteSpace=wrap;html=1;align=center;" vertex="1" parent="1">
          <mxGeometry x="344" y="548.5" width="70" height="30" as="geometry" />
        </mxCell>
        <mxCell id="pE_-tYmXkupXlst4wEmA-36" style="edgeStyle=orthogonalEdgeStyle;rounded=0;orthogonalLoop=1;jettySize=auto;html=1;exitX=0;exitY=0.5;exitDx=0;exitDy=0;endArrow=none;endFill=0;strokeColor=default;entryX=1;entryY=0.5;entryDx=0;entryDy=0;" edge="1" parent="1" source="pE_-tYmXkupXlst4wEmA-35" target="pE_-tYmXkupXlst4wEmA-19">
          <mxGeometry relative="1" as="geometry">
            <mxPoint x="90" y="440" as="targetPoint" />
            <Array as="points">
              <mxPoint x="120" y="490" />
              <mxPoint x="120" y="419" />
            </Array>
          </mxGeometry>
        </mxCell>
        <mxCell id="pE_-tYmXkupXlst4wEmA-37" style="edgeStyle=orthogonalEdgeStyle;rounded=0;orthogonalLoop=1;jettySize=auto;html=1;exitX=0.5;exitY=1;exitDx=0;exitDy=0;endArrow=none;endFill=0;" edge="1" parent="1" source="pE_-tYmXkupXlst4wEmA-35" target="pE_-tYmXkupXlst4wEmA-34">
          <mxGeometry relative="1" as="geometry">
            <Array as="points">
              <mxPoint x="379" y="530" />
              <mxPoint x="379" y="530" />
            </Array>
          </mxGeometry>
        </mxCell>
        <mxCell id="pE_-tYmXkupXlst4wEmA-35" value="Agenda" style="shape=rhombus;perimeter=rhombusPerimeter;whiteSpace=wrap;html=1;align=center;" vertex="1" parent="1">
          <mxGeometry x="349" y="470" width="60" height="40" as="geometry" />
        </mxCell>
        <mxCell id="pE_-tYmXkupXlst4wEmA-45" style="edgeStyle=orthogonalEdgeStyle;rounded=0;orthogonalLoop=1;jettySize=auto;html=1;exitX=1;exitY=0.5;exitDx=0;exitDy=0;entryX=0;entryY=0.5;entryDx=0;entryDy=0;endArrow=none;endFill=0;" edge="1" parent="1" source="pE_-tYmXkupXlst4wEmA-40" target="pE_-tYmXkupXlst4wEmA-19">
          <mxGeometry relative="1" as="geometry" />
        </mxCell>
        <mxCell id="pE_-tYmXkupXlst4wEmA-40" value="Pertenece" style="shape=rhombus;perimeter=rhombusPerimeter;whiteSpace=wrap;html=1;align=center;" vertex="1" parent="1">
          <mxGeometry x="-360" y="393.5" width="70" height="51" as="geometry" />
        </mxCell>
        <mxCell id="pE_-tYmXkupXlst4wEmA-44" style="edgeStyle=orthogonalEdgeStyle;rounded=0;orthogonalLoop=1;jettySize=auto;html=1;exitX=0.5;exitY=1;exitDx=0;exitDy=0;entryX=0.5;entryY=0;entryDx=0;entryDy=0;endArrow=none;endFill=0;" edge="1" parent="1" source="pE_-tYmXkupXlst4wEmA-43" target="pE_-tYmXkupXlst4wEmA-40">
          <mxGeometry relative="1" as="geometry" />
        </mxCell>
        <mxCell id="pE_-tYmXkupXlst4wEmA-43" value="Rol" style="whiteSpace=wrap;html=1;align=center;" vertex="1" parent="1">
          <mxGeometry x="-435" y="315" width="70" height="30" as="geometry" />
        </mxCell>
        <mxCell id="pE_-tYmXkupXlst4wEmA-48" value="Dirección" style="whiteSpace=wrap;html=1;align=center;" vertex="1" parent="1">
          <mxGeometry x="-165" y="562" width="70" height="30" as="geometry" />
        </mxCell>
        <mxCell id="pE_-tYmXkupXlst4wEmA-51" style="edgeStyle=orthogonalEdgeStyle;rounded=0;orthogonalLoop=1;jettySize=auto;html=1;exitX=0.5;exitY=1;exitDx=0;exitDy=0;endArrow=none;endFill=0;" edge="1" parent="1" source="pE_-tYmXkupXlst4wEmA-49" target="pE_-tYmXkupXlst4wEmA-48">
          <mxGeometry relative="1" as="geometry">
            <mxPoint x="-80" y="530" as="sourcePoint" />
          </mxGeometry>
        </mxCell>
        <mxCell id="pE_-tYmXkupXlst4wEmA-49" value="Tiene" style="shape=rhombus;perimeter=rhombusPerimeter;whiteSpace=wrap;html=1;align=center;" vertex="1" parent="1">
          <mxGeometry x="-160" y="485" width="60" height="40" as="geometry" />
        </mxCell>
        <mxCell id="VHF54E1nqd2V8wnNLrDC-51" style="edgeStyle=orthogonalEdgeStyle;rounded=0;orthogonalLoop=1;jettySize=auto;html=1;exitX=1;exitY=0.5;exitDx=0;exitDy=0;entryX=0;entryY=0.5;entryDx=0;entryDy=0;endArrow=none;endFill=0;" edge="1" parent="1" source="pE_-tYmXkupXlst4wEmA-52" target="pE_-tYmXkupXlst4wEmA-232">
          <mxGeometry relative="1" as="geometry" />
        </mxCell>
        <mxCell id="pE_-tYmXkupXlst4wEmA-52" value="Pago" style="whiteSpace=wrap;html=1;align=center;" vertex="1" parent="1">
          <mxGeometry x="560" y="550" width="80" height="30" as="geometry" />
        </mxCell>
        <mxCell id="pE_-tYmXkupXlst4wEmA-55" style="edgeStyle=orthogonalEdgeStyle;rounded=0;orthogonalLoop=1;jettySize=auto;html=1;exitX=0.5;exitY=1;exitDx=0;exitDy=0;entryX=0.5;entryY=0;entryDx=0;entryDy=0;endArrow=none;endFill=0;" edge="1" parent="1" source="pE_-tYmXkupXlst4wEmA-53" target="pE_-tYmXkupXlst4wEmA-52">
          <mxGeometry relative="1" as="geometry" />
        </mxCell>
        <mxCell id="pE_-tYmXkupXlst4wEmA-53" value="Tiene" style="shape=rhombus;perimeter=rhombusPerimeter;whiteSpace=wrap;html=1;align=center;" vertex="1" parent="1">
          <mxGeometry x="570" y="483" width="60" height="40" as="geometry" />
        </mxCell>
        <mxCell id="pE_-tYmXkupXlst4wEmA-59" style="edgeStyle=orthogonalEdgeStyle;rounded=0;orthogonalLoop=1;jettySize=auto;html=1;exitX=1;exitY=0.5;exitDx=0;exitDy=0;endArrow=none;endFill=0;entryX=0.5;entryY=1;entryDx=0;entryDy=0;" edge="1" parent="1" source="pE_-tYmXkupXlst4wEmA-57" target="pE_-tYmXkupXlst4wEmA-65">
          <mxGeometry relative="1" as="geometry">
            <mxPoint x="650" y="370" as="targetPoint" />
          </mxGeometry>
        </mxCell>
        <mxCell id="pE_-tYmXkupXlst4wEmA-57" value="Contiene" style="shape=rhombus;perimeter=rhombusPerimeter;whiteSpace=wrap;html=1;align=center;" vertex="1" parent="1">
          <mxGeometry x="646" y="370" width="60" height="40" as="geometry" />
        </mxCell>
        <mxCell id="pE_-tYmXkupXlst4wEmA-66" style="edgeStyle=orthogonalEdgeStyle;rounded=0;orthogonalLoop=1;jettySize=auto;html=1;exitX=0.5;exitY=1;exitDx=0;exitDy=0;entryX=0.5;entryY=0;entryDx=0;entryDy=0;endArrow=none;endFill=0;" edge="1" parent="1">
          <mxGeometry relative="1" as="geometry">
            <mxPoint x="756" y="325" as="sourcePoint" />
            <mxPoint x="756" y="355" as="targetPoint" />
          </mxGeometry>
        </mxCell>
        <mxCell id="pE_-tYmXkupXlst4wEmA-65" value="Producto" style="whiteSpace=wrap;html=1;align=center;" vertex="1" parent="1">
          <mxGeometry x="711" y="295" width="90" height="30" as="geometry" />
        </mxCell>
        <mxCell id="pE_-tYmXkupXlst4wEmA-68" style="edgeStyle=orthogonalEdgeStyle;rounded=0;orthogonalLoop=1;jettySize=auto;html=1;exitX=0.5;exitY=1;exitDx=0;exitDy=0;endArrow=none;endFill=0;" edge="1" parent="1" source="pE_-tYmXkupXlst4wEmA-67" target="pE_-tYmXkupXlst4wEmA-65">
          <mxGeometry relative="1" as="geometry">
            <Array as="points">
              <mxPoint x="756" y="280" />
              <mxPoint x="756" y="280" />
            </Array>
          </mxGeometry>
        </mxCell>
        <mxCell id="pE_-tYmXkupXlst4wEmA-70" style="edgeStyle=orthogonalEdgeStyle;rounded=0;orthogonalLoop=1;jettySize=auto;html=1;exitX=0.5;exitY=0;exitDx=0;exitDy=0;entryX=0.5;entryY=1;entryDx=0;entryDy=0;endArrow=none;endFill=0;" edge="1" parent="1" source="pE_-tYmXkupXlst4wEmA-67" target="pE_-tYmXkupXlst4wEmA-69">
          <mxGeometry relative="1" as="geometry">
            <mxPoint x="914" y="230" as="sourcePoint" />
          </mxGeometry>
        </mxCell>
        <mxCell id="pE_-tYmXkupXlst4wEmA-67" value="Registrado" style="shape=rhombus;perimeter=rhombusPerimeter;whiteSpace=wrap;html=1;align=center;" vertex="1" parent="1">
          <mxGeometry x="720" y="220" width="72" height="45" as="geometry" />
        </mxCell>
        <mxCell id="nqiJ-j-PXSu5-9SwA9x0-1" value="" style="edgeStyle=orthogonalEdgeStyle;rounded=0;orthogonalLoop=1;jettySize=auto;html=1;endArrow=none;endFill=0;entryX=0;entryY=0.5;entryDx=0;entryDy=0;" edge="1" parent="1" source="pE_-tYmXkupXlst4wEmA-69" target="pE_-tYmXkupXlst4wEmA-207">
          <mxGeometry relative="1" as="geometry">
            <Array as="points">
              <mxPoint x="840" y="143" />
              <mxPoint x="840" y="139" />
            </Array>
          </mxGeometry>
        </mxCell>
        <mxCell id="pE_-tYmXkupXlst4wEmA-69" value="Inventario" style="whiteSpace=wrap;html=1;align=center;" vertex="1" parent="1">
          <mxGeometry x="631" y="128" width="90" height="30" as="geometry" />
        </mxCell>
        <mxCell id="pE_-tYmXkupXlst4wEmA-74" style="edgeStyle=orthogonalEdgeStyle;rounded=0;orthogonalLoop=1;jettySize=auto;html=1;exitX=0.5;exitY=1;exitDx=0;exitDy=0;endArrow=none;endFill=0;" edge="1" parent="1" source="pE_-tYmXkupXlst4wEmA-71" target="pE_-tYmXkupXlst4wEmA-73">
          <mxGeometry relative="1" as="geometry">
            <Array as="points">
              <mxPoint x="250" y="750" />
              <mxPoint x="250" y="750" />
            </Array>
          </mxGeometry>
        </mxCell>
        <mxCell id="pE_-tYmXkupXlst4wEmA-71" value="Genera" style="shape=rhombus;perimeter=rhombusPerimeter;whiteSpace=wrap;html=1;align=center;" vertex="1" parent="1">
          <mxGeometry x="220" y="663" width="60" height="40" as="geometry" />
        </mxCell>
        <mxCell id="pE_-tYmXkupXlst4wEmA-73" value="Recordatorio" style="whiteSpace=wrap;html=1;align=center;" vertex="1" parent="1">
          <mxGeometry x="210" y="759" width="70" height="30" as="geometry" />
        </mxCell>
        <mxCell id="pE_-tYmXkupXlst4wEmA-78" style="edgeStyle=orthogonalEdgeStyle;rounded=0;orthogonalLoop=1;jettySize=auto;html=1;exitX=0.5;exitY=1;exitDx=0;exitDy=0;entryX=0.5;entryY=0;entryDx=0;entryDy=0;endArrow=none;endFill=0;" edge="1" parent="1" source="pE_-tYmXkupXlst4wEmA-75" target="pE_-tYmXkupXlst4wEmA-77">
          <mxGeometry relative="1" as="geometry" />
        </mxCell>
        <mxCell id="pE_-tYmXkupXlst4wEmA-75" value="Atiende" style="shape=rhombus;perimeter=rhombusPerimeter;whiteSpace=wrap;html=1;align=center;" vertex="1" parent="1">
          <mxGeometry x="349" y="663" width="60" height="40" as="geometry" />
        </mxCell>
        <mxCell id="pE_-tYmXkupXlst4wEmA-76" style="edgeStyle=orthogonalEdgeStyle;rounded=0;orthogonalLoop=1;jettySize=auto;html=1;exitX=0.5;exitY=0;exitDx=0;exitDy=0;endArrow=none;endFill=0;entryX=0.5;entryY=1;entryDx=0;entryDy=0;" edge="1" parent="1" source="pE_-tYmXkupXlst4wEmA-75" target="pE_-tYmXkupXlst4wEmA-34">
          <mxGeometry relative="1" as="geometry">
            <mxPoint x="342" y="580" as="targetPoint" />
            <Array as="points">
              <mxPoint x="405" y="620" />
              <mxPoint x="330" y="620" />
            </Array>
          </mxGeometry>
        </mxCell>
        <mxCell id="pE_-tYmXkupXlst4wEmA-148" style="edgeStyle=orthogonalEdgeStyle;rounded=0;orthogonalLoop=1;jettySize=auto;html=1;exitX=0.5;exitY=1;exitDx=0;exitDy=0;endArrow=none;endFill=0;entryX=1;entryY=0.5;entryDx=0;entryDy=0;" edge="1" parent="1" source="pE_-tYmXkupXlst4wEmA-77" target="pE_-tYmXkupXlst4wEmA-147">
          <mxGeometry relative="1" as="geometry">
            <mxPoint x="445" y="823" as="targetPoint" />
            <Array as="points">
              <mxPoint x="405" y="803" />
              <mxPoint x="455" y="803" />
              <mxPoint x="455" y="837" />
            </Array>
          </mxGeometry>
        </mxCell>
        <mxCell id="VHF54E1nqd2V8wnNLrDC-2" value="" style="edgeStyle=orthogonalEdgeStyle;rounded=0;orthogonalLoop=1;jettySize=auto;html=1;endArrow=none;endFill=0;exitX=0.5;exitY=1;exitDx=0;exitDy=0;entryX=1;entryY=0.5;entryDx=0;entryDy=0;" edge="1" parent="1" source="pE_-tYmXkupXlst4wEmA-77" target="VHF54E1nqd2V8wnNLrDC-1">
          <mxGeometry relative="1" as="geometry">
            <Array as="points">
              <mxPoint x="405" y="803" />
              <mxPoint x="455" y="803" />
              <mxPoint x="455" y="888" />
            </Array>
          </mxGeometry>
        </mxCell>
        <mxCell id="pE_-tYmXkupXlst4wEmA-77" value="Profesional" style="whiteSpace=wrap;html=1;align=center;" vertex="1" parent="1">
          <mxGeometry x="339" y="756" width="80" height="30" as="geometry" />
        </mxCell>
        <mxCell id="pE_-tYmXkupXlst4wEmA-84" style="edgeStyle=orthogonalEdgeStyle;rounded=0;orthogonalLoop=1;jettySize=auto;html=1;exitX=0.5;exitY=1;exitDx=0;exitDy=0;entryX=0;entryY=0.5;entryDx=0;entryDy=0;endArrow=none;endFill=0;" edge="1" parent="1" source="pE_-tYmXkupXlst4wEmA-79" target="pE_-tYmXkupXlst4wEmA-83">
          <mxGeometry relative="1" as="geometry" />
        </mxCell>
        <mxCell id="pE_-tYmXkupXlst4wEmA-161" style="edgeStyle=orthogonalEdgeStyle;rounded=0;orthogonalLoop=1;jettySize=auto;html=1;exitX=0.5;exitY=0;exitDx=0;exitDy=0;endArrow=none;endFill=0;entryX=0.5;entryY=1;entryDx=0;entryDy=0;" edge="1" parent="1" source="pE_-tYmXkupXlst4wEmA-79" target="pE_-tYmXkupXlst4wEmA-34">
          <mxGeometry relative="1" as="geometry">
            <mxPoint x="325.4499999999998" y="557.1299999999999" as="targetPoint" />
            <Array as="points">
              <mxPoint x="508" y="620" />
              <mxPoint x="380" y="620" />
              <mxPoint x="380" y="579" />
            </Array>
            <mxPoint x="470" y="635.5" as="sourcePoint" />
          </mxGeometry>
        </mxCell>
        <mxCell id="pE_-tYmXkupXlst4wEmA-79" value="Corresponde" style="shape=rhombus;perimeter=rhombusPerimeter;whiteSpace=wrap;html=1;align=center;" vertex="1" parent="1">
          <mxGeometry x="474.5" y="663" width="66" height="40" as="geometry" />
        </mxCell>
        <mxCell id="pE_-tYmXkupXlst4wEmA-83" value="Servicio" style="whiteSpace=wrap;html=1;align=center;" vertex="1" parent="1">
          <mxGeometry x="575" y="725" width="80" height="30" as="geometry" />
        </mxCell>
        <mxCell id="pE_-tYmXkupXlst4wEmA-85" value="admin" style="whiteSpace=wrap;html=1;align=center;" vertex="1" parent="1">
          <mxGeometry x="200" y="126" width="80" height="30" as="geometry" />
        </mxCell>
        <mxCell id="pE_-tYmXkupXlst4wEmA-88" style="edgeStyle=orthogonalEdgeStyle;rounded=0;orthogonalLoop=1;jettySize=auto;html=1;entryX=0;entryY=0.5;entryDx=0;entryDy=0;endArrow=none;endFill=0;" edge="1" parent="1" target="pE_-tYmXkupXlst4wEmA-69">
          <mxGeometry relative="1" as="geometry">
            <mxPoint x="560" y="143" as="sourcePoint" />
          </mxGeometry>
        </mxCell>
        <mxCell id="pE_-tYmXkupXlst4wEmA-86" value="Gestiona" style="shape=rhombus;perimeter=rhombusPerimeter;whiteSpace=wrap;html=1;align=center;" vertex="1" parent="1">
          <mxGeometry x="470" y="123" width="60" height="40" as="geometry" />
        </mxCell>
        <mxCell id="pE_-tYmXkupXlst4wEmA-89" value="&lt;b&gt;1:1&lt;/b&gt;" style="text;html=1;align=center;verticalAlign=middle;resizable=0;points=[];autosize=1;strokeColor=none;fillColor=none;" vertex="1" parent="1">
          <mxGeometry x="-295" y="380" width="40" height="30" as="geometry" />
        </mxCell>
        <mxCell id="pE_-tYmXkupXlst4wEmA-90" value="1" style="text;html=1;align=center;verticalAlign=middle;resizable=0;points=[];autosize=1;strokeColor=none;fillColor=none;" vertex="1" parent="1">
          <mxGeometry x="-405" y="343" width="30" height="30" as="geometry" />
        </mxCell>
        <mxCell id="pE_-tYmXkupXlst4wEmA-91" value="1" style="text;html=1;align=center;verticalAlign=middle;resizable=0;points=[];autosize=1;strokeColor=none;fillColor=none;" vertex="1" parent="1">
          <mxGeometry x="-60" y="392" width="30" height="30" as="geometry" />
        </mxCell>
        <mxCell id="pE_-tYmXkupXlst4wEmA-92" value="1" style="text;html=1;align=center;verticalAlign=middle;resizable=0;points=[];autosize=1;strokeColor=none;fillColor=none;" vertex="1" parent="1">
          <mxGeometry x="45" y="416" width="30" height="30" as="geometry" />
        </mxCell>
        <mxCell id="pE_-tYmXkupXlst4wEmA-95" value="M" style="text;html=1;align=center;verticalAlign=middle;resizable=0;points=[];autosize=1;strokeColor=none;fillColor=none;" vertex="1" parent="1">
          <mxGeometry x="349" y="525" width="30" height="30" as="geometry" />
        </mxCell>
        <mxCell id="pE_-tYmXkupXlst4wEmA-98" value="1" style="text;html=1;align=center;verticalAlign=middle;resizable=0;points=[];autosize=1;strokeColor=none;fillColor=none;" vertex="1" parent="1">
          <mxGeometry x="546" y="718" width="30" height="30" as="geometry" />
        </mxCell>
        <mxCell id="pE_-tYmXkupXlst4wEmA-100" value="M" style="text;html=1;align=center;verticalAlign=middle;resizable=0;points=[];autosize=1;strokeColor=none;fillColor=none;" vertex="1" parent="1">
          <mxGeometry x="375" y="578" width="30" height="30" as="geometry" />
        </mxCell>
        <mxCell id="pE_-tYmXkupXlst4wEmA-101" value="&lt;b&gt;1:M&lt;/b&gt;" style="text;html=1;align=center;verticalAlign=middle;resizable=0;points=[];autosize=1;strokeColor=none;fillColor=none;" vertex="1" parent="1">
          <mxGeometry x="540.5" y="668" width="40" height="30" as="geometry" />
        </mxCell>
        <mxCell id="pE_-tYmXkupXlst4wEmA-103" value="1" style="text;html=1;align=center;verticalAlign=middle;resizable=0;points=[];autosize=1;strokeColor=none;fillColor=none;" vertex="1" parent="1">
          <mxGeometry x="370" y="733" width="30" height="30" as="geometry" />
        </mxCell>
        <mxCell id="pE_-tYmXkupXlst4wEmA-104" value="&lt;b&gt;1:M&lt;/b&gt;" style="text;html=1;align=center;verticalAlign=middle;resizable=0;points=[];autosize=1;strokeColor=none;fillColor=none;" vertex="1" parent="1">
          <mxGeometry x="410" y="670" width="40" height="30" as="geometry" />
        </mxCell>
        <mxCell id="pE_-tYmXkupXlst4wEmA-107" value="&lt;b&gt;1:M&lt;/b&gt;" style="text;html=1;align=center;verticalAlign=middle;resizable=0;points=[];autosize=1;strokeColor=none;fillColor=none;" vertex="1" parent="1">
          <mxGeometry x="275" y="668" width="40" height="30" as="geometry" />
        </mxCell>
        <mxCell id="pE_-tYmXkupXlst4wEmA-109" value="1" style="text;html=1;align=center;verticalAlign=middle;resizable=0;points=[];autosize=1;strokeColor=none;fillColor=none;" vertex="1" parent="1">
          <mxGeometry x="45" y="395" width="30" height="30" as="geometry" />
        </mxCell>
        <mxCell id="pE_-tYmXkupXlst4wEmA-110" value="M" style="text;html=1;align=center;verticalAlign=middle;resizable=0;points=[];autosize=1;strokeColor=none;fillColor=none;" vertex="1" parent="1">
          <mxGeometry x="370" y="434" width="30" height="30" as="geometry" />
        </mxCell>
        <mxCell id="pE_-tYmXkupXlst4wEmA-111" value="&lt;b&gt;1:M&lt;/b&gt;" style="text;html=1;align=center;verticalAlign=middle;resizable=0;points=[];autosize=1;strokeColor=none;fillColor=none;" vertex="1" parent="1">
          <mxGeometry x="225" y="493" width="40" height="30" as="geometry" />
        </mxCell>
        <mxCell id="pE_-tYmXkupXlst4wEmA-112" value="1" style="text;html=1;align=center;verticalAlign=middle;resizable=0;points=[];autosize=1;strokeColor=none;fillColor=none;" vertex="1" parent="1">
          <mxGeometry x="395" y="438" width="30" height="30" as="geometry" />
        </mxCell>
        <mxCell id="pE_-tYmXkupXlst4wEmA-113" value="1" style="text;html=1;align=center;verticalAlign=middle;resizable=0;points=[];autosize=1;strokeColor=none;fillColor=none;" vertex="1" parent="1">
          <mxGeometry x="570" y="530" width="30" height="30" as="geometry" />
        </mxCell>
        <mxCell id="pE_-tYmXkupXlst4wEmA-114" value="&lt;b&gt;1:1&lt;/b&gt;" style="text;html=1;align=center;verticalAlign=middle;resizable=0;points=[];autosize=1;strokeColor=none;fillColor=none;" vertex="1" parent="1">
          <mxGeometry x="530" y="485.5" width="40" height="30" as="geometry" />
        </mxCell>
        <mxCell id="pE_-tYmXkupXlst4wEmA-115" value="1" style="text;html=1;align=center;verticalAlign=middle;resizable=0;points=[];autosize=1;strokeColor=none;fillColor=none;" vertex="1" parent="1">
          <mxGeometry x="480" y="398" width="30" height="30" as="geometry" />
        </mxCell>
        <mxCell id="pE_-tYmXkupXlst4wEmA-116" value="M" style="text;html=1;align=center;verticalAlign=middle;resizable=0;points=[];autosize=1;strokeColor=none;fillColor=none;" vertex="1" parent="1">
          <mxGeometry x="755" y="325" width="30" height="30" as="geometry" />
        </mxCell>
        <mxCell id="pE_-tYmXkupXlst4wEmA-117" value="&lt;b&gt;M:M&lt;/b&gt;" style="text;html=1;align=center;verticalAlign=middle;resizable=0;points=[];autosize=1;strokeColor=none;fillColor=none;" vertex="1" parent="1">
          <mxGeometry x="651" y="408" width="50" height="30" as="geometry" />
        </mxCell>
        <mxCell id="pE_-tYmXkupXlst4wEmA-118" value="M" style="text;html=1;align=center;verticalAlign=middle;resizable=0;points=[];autosize=1;strokeColor=none;fillColor=none;" vertex="1" parent="1">
          <mxGeometry x="480" y="422" width="30" height="30" as="geometry" />
        </mxCell>
        <mxCell id="pE_-tYmXkupXlst4wEmA-119" value="1" style="text;html=1;align=center;verticalAlign=middle;resizable=0;points=[];autosize=1;strokeColor=none;fillColor=none;" vertex="1" parent="1">
          <mxGeometry x="727.5" y="325" width="30" height="30" as="geometry" />
        </mxCell>
        <mxCell id="pE_-tYmXkupXlst4wEmA-121" value="1" style="text;html=1;align=center;verticalAlign=middle;resizable=0;points=[];autosize=1;strokeColor=none;fillColor=none;" vertex="1" parent="1">
          <mxGeometry x="671.5" y="154" width="30" height="30" as="geometry" />
        </mxCell>
        <mxCell id="pE_-tYmXkupXlst4wEmA-122" value="M" style="text;html=1;align=center;verticalAlign=middle;resizable=0;points=[];autosize=1;strokeColor=none;fillColor=none;" vertex="1" parent="1">
          <mxGeometry x="721" y="270" width="30" height="30" as="geometry" />
        </mxCell>
        <mxCell id="pE_-tYmXkupXlst4wEmA-123" value="&lt;b&gt;1:M&lt;/b&gt;" style="text;html=1;align=center;verticalAlign=middle;resizable=0;points=[];autosize=1;strokeColor=none;fillColor=none;" vertex="1" parent="1">
          <mxGeometry x="701.5" y="199" width="40" height="30" as="geometry" />
        </mxCell>
        <mxCell id="pE_-tYmXkupXlst4wEmA-126" value="&lt;b&gt;M:M&lt;/b&gt;" style="text;html=1;align=center;verticalAlign=middle;resizable=0;points=[];autosize=1;strokeColor=none;fillColor=none;" vertex="1" parent="1">
          <mxGeometry x="475" y="163" width="50" height="30" as="geometry" />
        </mxCell>
        <mxCell id="pE_-tYmXkupXlst4wEmA-127" value="&lt;span style=&quot;border-bottom: 1px dotted&quot;&gt;id_rol(PK)&lt;/span&gt;" style="ellipse;whiteSpace=wrap;html=1;align=center;" vertex="1" parent="1">
          <mxGeometry x="-432.5" y="190" width="65" height="30" as="geometry" />
        </mxCell>
        <mxCell id="pE_-tYmXkupXlst4wEmA-131" style="edgeStyle=orthogonalEdgeStyle;rounded=0;orthogonalLoop=1;jettySize=auto;html=1;exitX=0.5;exitY=1;exitDx=0;exitDy=0;" edge="1" parent="1" source="pE_-tYmXkupXlst4wEmA-130" target="pE_-tYmXkupXlst4wEmA-130">
          <mxGeometry relative="1" as="geometry" />
        </mxCell>
        <mxCell id="pE_-tYmXkupXlst4wEmA-134" value="&lt;span style=&quot;border-bottom: 1px dotted&quot;&gt;id_usuario(PK)&lt;/span&gt;" style="ellipse;whiteSpace=wrap;html=1;align=center;" vertex="1" parent="1">
          <mxGeometry x="-170" y="93" width="90" height="30" as="geometry" />
        </mxCell>
        <mxCell id="pE_-tYmXkupXlst4wEmA-137" value="Id_rol(FK)" style="ellipse;whiteSpace=wrap;html=1;align=center;fontStyle=4;" vertex="1" parent="1">
          <mxGeometry x="-160" y="370" width="70" height="28" as="geometry" />
        </mxCell>
        <mxCell id="pE_-tYmXkupXlst4wEmA-139" value="id_direccion(FK)" style="ellipse;whiteSpace=wrap;html=1;align=center;fontStyle=4;" vertex="1" parent="1">
          <mxGeometry x="305" y="369" width="100" height="38" as="geometry" />
        </mxCell>
        <mxCell id="6_Ajph1ug8hI6-sZuWo9-39" style="edgeStyle=orthogonalEdgeStyle;rounded=0;orthogonalLoop=1;jettySize=auto;html=1;entryX=0;entryY=0.5;entryDx=0;entryDy=0;endArrow=none;endFill=0;exitX=1;exitY=0.5;exitDx=0;exitDy=0;" edge="1" parent="1" source="pE_-tYmXkupXlst4wEmA-141" target="pE_-tYmXkupXlst4wEmA-48">
          <mxGeometry relative="1" as="geometry">
            <Array as="points">
              <mxPoint x="-200" y="493" />
              <mxPoint x="-200" y="577" />
            </Array>
          </mxGeometry>
        </mxCell>
        <mxCell id="pE_-tYmXkupXlst4wEmA-141" value="id_direccion(PK)" style="ellipse;whiteSpace=wrap;html=1;align=center;fontStyle=4;" vertex="1" parent="1">
          <mxGeometry x="-342.5" y="473.5" width="100" height="38" as="geometry" />
        </mxCell>
        <mxCell id="VHF54E1nqd2V8wnNLrDC-9" style="edgeStyle=orthogonalEdgeStyle;rounded=0;orthogonalLoop=1;jettySize=auto;html=1;exitX=1;exitY=0.5;exitDx=0;exitDy=0;endArrow=none;endFill=0;" edge="1" parent="1" source="pE_-tYmXkupXlst4wEmA-143">
          <mxGeometry relative="1" as="geometry">
            <Array as="points">
              <mxPoint x="112.5" y="774" />
              <mxPoint x="112.5" y="774" />
            </Array>
            <mxPoint x="212.5" y="774" as="targetPoint" />
          </mxGeometry>
        </mxCell>
        <mxCell id="pE_-tYmXkupXlst4wEmA-143" value="id_recordatorio(PK)" style="ellipse;whiteSpace=wrap;html=1;align=center;fontStyle=4;" vertex="1" parent="1">
          <mxGeometry x="-17.5" y="755" width="120" height="38" as="geometry" />
        </mxCell>
        <mxCell id="pE_-tYmXkupXlst4wEmA-145" value="id_cita(FK)" style="ellipse;whiteSpace=wrap;html=1;align=center;fontStyle=4;" vertex="1" parent="1">
          <mxGeometry x="-2.5" y="969" width="90" height="26" as="geometry" />
        </mxCell>
        <mxCell id="pE_-tYmXkupXlst4wEmA-147" value="id_profesional(PK)" style="ellipse;whiteSpace=wrap;html=1;align=center;fontStyle=4;" vertex="1" parent="1">
          <mxGeometry x="320" y="817" width="110" height="40" as="geometry" />
        </mxCell>
        <mxCell id="pE_-tYmXkupXlst4wEmA-149" value="id_usuario(FK)" style="ellipse;whiteSpace=wrap;html=1;align=center;fontStyle=4;" vertex="1" parent="1">
          <mxGeometry x="320" y="923" width="100" height="30" as="geometry" />
        </mxCell>
        <mxCell id="VHF54E1nqd2V8wnNLrDC-48" style="edgeStyle=orthogonalEdgeStyle;rounded=0;orthogonalLoop=1;jettySize=auto;html=1;exitX=1;exitY=0.5;exitDx=0;exitDy=0;entryX=0;entryY=0.5;entryDx=0;entryDy=0;endArrow=none;endFill=0;" edge="1" parent="1" source="pE_-tYmXkupXlst4wEmA-151" target="pE_-tYmXkupXlst4wEmA-34">
          <mxGeometry relative="1" as="geometry">
            <Array as="points">
              <mxPoint x="180" y="593" />
              <mxPoint x="180" y="565" />
            </Array>
          </mxGeometry>
        </mxCell>
        <mxCell id="pE_-tYmXkupXlst4wEmA-151" value="Id_Cita(PK)" style="ellipse;whiteSpace=wrap;html=1;align=center;fontStyle=4;" vertex="1" parent="1">
          <mxGeometry x="60" y="580" width="90" height="26" as="geometry" />
        </mxCell>
        <mxCell id="VHF54E1nqd2V8wnNLrDC-43" style="edgeStyle=elbowEdgeStyle;rounded=0;orthogonalLoop=1;jettySize=auto;html=1;entryX=0;entryY=0.5;entryDx=0;entryDy=0;endArrow=none;endFill=0;exitX=1;exitY=0.5;exitDx=0;exitDy=0;" edge="1" parent="1">
          <mxGeometry relative="1" as="geometry">
            <mxPoint x="149.9999999999984" y="620.5" as="sourcePoint" />
            <mxPoint x="295" y="565.5" as="targetPoint" />
            <Array as="points">
              <mxPoint x="180" y="600.5" />
            </Array>
          </mxGeometry>
        </mxCell>
        <mxCell id="pE_-tYmXkupXlst4wEmA-153" value="Id_Usuario(FK)" style="ellipse;whiteSpace=wrap;html=1;align=center;fontStyle=4;" vertex="1" parent="1">
          <mxGeometry x="60" y="610" width="90" height="25" as="geometry" />
        </mxCell>
        <mxCell id="pE_-tYmXkupXlst4wEmA-158" style="edgeStyle=elbowEdgeStyle;rounded=0;orthogonalLoop=1;jettySize=auto;html=1;exitX=1;exitY=0.5;exitDx=0;exitDy=0;entryX=0;entryY=0.5;entryDx=0;entryDy=0;endArrow=none;endFill=0;" edge="1" parent="1" source="VHF54E1nqd2V8wnNLrDC-40" target="pE_-tYmXkupXlst4wEmA-34">
          <mxGeometry relative="1" as="geometry">
            <Array as="points">
              <mxPoint x="180" y="620" />
            </Array>
          </mxGeometry>
        </mxCell>
        <mxCell id="VHF54E1nqd2V8wnNLrDC-47" style="edgeStyle=orthogonalEdgeStyle;rounded=0;orthogonalLoop=1;jettySize=auto;html=1;exitX=1;exitY=0.5;exitDx=0;exitDy=0;entryX=0;entryY=0.5;entryDx=0;entryDy=0;endArrow=none;endFill=0;" edge="1" parent="1" source="pE_-tYmXkupXlst4wEmA-156" target="pE_-tYmXkupXlst4wEmA-34">
          <mxGeometry relative="1" as="geometry">
            <Array as="points">
              <mxPoint x="180" y="536" />
              <mxPoint x="180" y="565" />
            </Array>
          </mxGeometry>
        </mxCell>
        <mxCell id="pE_-tYmXkupXlst4wEmA-156" value="Id_Profesional(FK)" style="ellipse;whiteSpace=wrap;html=1;align=center;fontStyle=4;" vertex="1" parent="1">
          <mxGeometry x="47.5" y="520.5" width="115" height="32" as="geometry" />
        </mxCell>
        <mxCell id="VHF54E1nqd2V8wnNLrDC-56" style="edgeStyle=orthogonalEdgeStyle;rounded=0;orthogonalLoop=1;jettySize=auto;html=1;exitX=0;exitY=0.5;exitDx=0;exitDy=0;entryX=1;entryY=0.5;entryDx=0;entryDy=0;endArrow=none;endFill=0;" edge="1" parent="1" source="pE_-tYmXkupXlst4wEmA-166" target="pE_-tYmXkupXlst4wEmA-52">
          <mxGeometry relative="1" as="geometry">
            <Array as="points">
              <mxPoint x="755" y="628" />
              <mxPoint x="700" y="628" />
              <mxPoint x="700" y="565" />
            </Array>
          </mxGeometry>
        </mxCell>
        <mxCell id="pE_-tYmXkupXlst4wEmA-163" value="id_pago(PK)" style="ellipse;whiteSpace=wrap;html=1;align=center;fontStyle=4;" vertex="1" parent="1">
          <mxGeometry x="751" y="446" width="90" height="26" as="geometry" />
        </mxCell>
        <mxCell id="VHF54E1nqd2V8wnNLrDC-55" style="edgeStyle=orthogonalEdgeStyle;rounded=0;orthogonalLoop=1;jettySize=auto;html=1;entryX=1;entryY=0.5;entryDx=0;entryDy=0;endArrow=none;endFill=0;exitX=0;exitY=0.5;exitDx=0;exitDy=0;" edge="1" parent="1" source="pE_-tYmXkupXlst4wEmA-229" target="pE_-tYmXkupXlst4wEmA-52">
          <mxGeometry relative="1" as="geometry">
            <Array as="points">
              <mxPoint x="744" y="598" />
              <mxPoint x="700" y="598" />
              <mxPoint x="700" y="565" />
            </Array>
            <mxPoint x="755" y="598" as="sourcePoint" />
          </mxGeometry>
        </mxCell>
        <mxCell id="pE_-tYmXkupXlst4wEmA-166" value="id_pedido(FK)" style="ellipse;whiteSpace=wrap;html=1;align=center;fontStyle=4;" vertex="1" parent="1">
          <mxGeometry x="755" y="614" width="90" height="26" as="geometry" />
        </mxCell>
        <mxCell id="pE_-tYmXkupXlst4wEmA-168" value="id_pedido(PK)" style="ellipse;whiteSpace=wrap;html=1;align=center;fontStyle=4;" vertex="1" parent="1">
          <mxGeometry x="310" y="173" width="90" height="26" as="geometry" />
        </mxCell>
        <mxCell id="pE_-tYmXkupXlst4wEmA-170" value="id_usuario(FK)" style="ellipse;whiteSpace=wrap;html=1;align=center;fontStyle=4;" vertex="1" parent="1">
          <mxGeometry x="310" y="333.5" width="90" height="26" as="geometry" />
        </mxCell>
        <mxCell id="pE_-tYmXkupXlst4wEmA-176" style="edgeStyle=orthogonalEdgeStyle;rounded=0;orthogonalLoop=1;jettySize=auto;html=1;exitX=1;exitY=0.5;exitDx=0;exitDy=0;endArrow=none;endFill=0;entryX=0.5;entryY=0;entryDx=0;entryDy=0;" edge="1" parent="1" source="pE_-tYmXkupXlst4wEmA-175" target="pE_-tYmXkupXlst4wEmA-57">
          <mxGeometry relative="1" as="geometry">
            <mxPoint x="670" y="380" as="targetPoint" />
            <Array as="points">
              <mxPoint x="656" y="319" />
              <mxPoint x="670" y="319" />
              <mxPoint x="670" y="370" />
            </Array>
          </mxGeometry>
        </mxCell>
        <mxCell id="pE_-tYmXkupXlst4wEmA-175" value="id_pedido(FK)" style="ellipse;whiteSpace=wrap;html=1;align=center;fontStyle=4;" vertex="1" parent="1">
          <mxGeometry x="514" y="304" width="94" height="29" as="geometry" />
        </mxCell>
        <mxCell id="pE_-tYmXkupXlst4wEmA-182" style="edgeStyle=orthogonalEdgeStyle;rounded=0;orthogonalLoop=1;jettySize=auto;html=1;exitX=0;exitY=0.5;exitDx=0;exitDy=0;entryX=1;entryY=0.25;entryDx=0;entryDy=0;endArrow=none;endFill=0;" edge="1" parent="1" source="pE_-tYmXkupXlst4wEmA-181" target="pE_-tYmXkupXlst4wEmA-65">
          <mxGeometry relative="1" as="geometry">
            <Array as="points">
              <mxPoint x="830" y="216" />
              <mxPoint x="830" y="310" />
              <mxPoint x="801" y="310" />
            </Array>
          </mxGeometry>
        </mxCell>
        <mxCell id="pE_-tYmXkupXlst4wEmA-181" value="id_producto(PK)" style="ellipse;whiteSpace=wrap;html=1;align=center;fontStyle=4;" vertex="1" parent="1">
          <mxGeometry x="950.25" y="204" width="95.5" height="29" as="geometry" />
        </mxCell>
        <mxCell id="pE_-tYmXkupXlst4wEmA-183" value="id_producto(FK)" style="ellipse;whiteSpace=wrap;html=1;align=center;fontStyle=4;" vertex="1" parent="1">
          <mxGeometry x="836.5" y="48" width="90" height="26" as="geometry" />
        </mxCell>
        <mxCell id="pE_-tYmXkupXlst4wEmA-185" value="id_admin(FK)" style="ellipse;whiteSpace=wrap;html=1;align=center;fontStyle=4;" vertex="1" parent="1">
          <mxGeometry x="835" y="19" width="90" height="26" as="geometry" />
        </mxCell>
        <mxCell id="pE_-tYmXkupXlst4wEmA-189" style="edgeStyle=orthogonalEdgeStyle;rounded=0;orthogonalLoop=1;jettySize=auto;html=1;exitX=0.5;exitY=1;exitDx=0;exitDy=0;endArrow=none;endFill=0;" edge="1" parent="1" source="pE_-tYmXkupXlst4wEmA-188">
          <mxGeometry relative="1" as="geometry">
            <mxPoint x="721.3437359073537" y="32.01041331127476" as="sourcePoint" />
            <mxPoint x="720" y="143" as="targetPoint" />
            <Array as="points">
              <mxPoint x="740" y="45" />
              <mxPoint x="740" y="143" />
            </Array>
          </mxGeometry>
        </mxCell>
        <mxCell id="nqiJ-j-PXSu5-9SwA9x0-2" style="edgeStyle=orthogonalEdgeStyle;rounded=0;orthogonalLoop=1;jettySize=auto;html=1;exitX=0;exitY=0.5;exitDx=0;exitDy=0;entryX=1;entryY=0.5;entryDx=0;entryDy=0;endArrow=none;endFill=0;" edge="1" parent="1" source="pE_-tYmXkupXlst4wEmA-185" target="pE_-tYmXkupXlst4wEmA-69">
          <mxGeometry relative="1" as="geometry">
            <Array as="points">
              <mxPoint x="835" y="32" />
              <mxPoint x="810" y="32" />
              <mxPoint x="810" y="143" />
            </Array>
          </mxGeometry>
        </mxCell>
        <mxCell id="pE_-tYmXkupXlst4wEmA-190" value="id_admin(PK)" style="ellipse;whiteSpace=wrap;html=1;align=center;fontStyle=4;" vertex="1" parent="1">
          <mxGeometry x="45" y="88" width="90" height="26" as="geometry" />
        </mxCell>
        <mxCell id="pE_-tYmXkupXlst4wEmA-193" style="edgeStyle=orthogonalEdgeStyle;rounded=0;orthogonalLoop=1;jettySize=auto;html=1;exitX=1;exitY=0.5;exitDx=0;exitDy=0;endArrow=none;endFill=0;entryX=0;entryY=0.5;entryDx=0;entryDy=0;" edge="1" parent="1" source="pE_-tYmXkupXlst4wEmA-192" target="pE_-tYmXkupXlst4wEmA-85">
          <mxGeometry relative="1" as="geometry">
            <mxPoint x="200" y="150" as="targetPoint" />
            <Array as="points">
              <mxPoint x="160" y="178" />
              <mxPoint x="160" y="140" />
              <mxPoint x="200" y="140" />
            </Array>
          </mxGeometry>
        </mxCell>
        <mxCell id="pE_-tYmXkupXlst4wEmA-192" value="id_usuario(FK)" style="ellipse;whiteSpace=wrap;html=1;align=center;fontStyle=4;" vertex="1" parent="1">
          <mxGeometry x="40" y="163" width="100" height="30" as="geometry" />
        </mxCell>
        <mxCell id="pE_-tYmXkupXlst4wEmA-196" value="fecha_creacion" style="ellipse;whiteSpace=wrap;html=1;" vertex="1" parent="1">
          <mxGeometry x="45" y="125" width="90" height="31" as="geometry" />
        </mxCell>
        <mxCell id="pE_-tYmXkupXlst4wEmA-198" value="" style="edgeStyle=orthogonalEdgeStyle;rounded=0;orthogonalLoop=1;jettySize=auto;html=1;exitX=1;exitY=0.5;exitDx=0;exitDy=0;endArrow=none;endFill=0;entryX=0;entryY=0.5;entryDx=0;entryDy=0;" edge="1" parent="1" source="pE_-tYmXkupXlst4wEmA-85" target="pE_-tYmXkupXlst4wEmA-86">
          <mxGeometry relative="1" as="geometry">
            <mxPoint x="365" y="113" as="sourcePoint" />
            <mxPoint x="470" y="140" as="targetPoint" />
            <Array as="points">
              <mxPoint x="280" y="143" />
            </Array>
          </mxGeometry>
        </mxCell>
        <mxCell id="pE_-tYmXkupXlst4wEmA-199" value="" style="edgeStyle=orthogonalEdgeStyle;rounded=0;orthogonalLoop=1;jettySize=auto;html=1;exitX=1;exitY=0.5;exitDx=0;exitDy=0;entryX=0;entryY=0.5;entryDx=0;entryDy=0;endArrow=none;endFill=0;" edge="1" parent="1">
          <mxGeometry relative="1" as="geometry">
            <mxPoint x="531" y="143" as="sourcePoint" />
            <mxPoint x="570" y="143" as="targetPoint" />
          </mxGeometry>
        </mxCell>
        <mxCell id="pE_-tYmXkupXlst4wEmA-203" value="M" style="text;html=1;align=center;verticalAlign=middle;resizable=0;points=[];autosize=1;strokeColor=none;fillColor=none;" vertex="1" parent="1">
          <mxGeometry x="280" y="114" width="30" height="30" as="geometry" />
        </mxCell>
        <mxCell id="pE_-tYmXkupXlst4wEmA-204" value="M" style="text;html=1;align=center;verticalAlign=middle;resizable=0;points=[];autosize=1;strokeColor=none;fillColor=none;" vertex="1" parent="1">
          <mxGeometry x="601" y="116" width="30" height="30" as="geometry" />
        </mxCell>
        <mxCell id="pE_-tYmXkupXlst4wEmA-206" value="stock_actual" style="ellipse;whiteSpace=wrap;html=1;" vertex="1" parent="1">
          <mxGeometry x="840" y="85" width="80" height="31" as="geometry" />
        </mxCell>
        <mxCell id="pE_-tYmXkupXlst4wEmA-207" value="stock_minimo" style="ellipse;whiteSpace=wrap;html=1;" vertex="1" parent="1">
          <mxGeometry x="840" y="123" width="80" height="31" as="geometry" />
        </mxCell>
        <mxCell id="pE_-tYmXkupXlst4wEmA-208" value="stock_maximo" style="ellipse;whiteSpace=wrap;html=1;" vertex="1" parent="1">
          <mxGeometry x="848" y="158" width="80" height="31" as="geometry" />
        </mxCell>
        <mxCell id="pE_-tYmXkupXlst4wEmA-211" style="edgeStyle=orthogonalEdgeStyle;rounded=0;orthogonalLoop=1;jettySize=auto;html=1;exitX=0;exitY=0.5;exitDx=0;exitDy=0;endArrow=none;endFill=0;entryX=1;entryY=0.75;entryDx=0;entryDy=0;" edge="1" parent="1" source="pE_-tYmXkupXlst4wEmA-208" target="pE_-tYmXkupXlst4wEmA-69">
          <mxGeometry relative="1" as="geometry">
            <mxPoint x="690" y="160" as="targetPoint" />
            <Array as="points">
              <mxPoint x="848" y="179" />
              <mxPoint x="810" y="179" />
              <mxPoint x="810" y="143" />
              <mxPoint x="721" y="143" />
            </Array>
          </mxGeometry>
        </mxCell>
        <mxCell id="pE_-tYmXkupXlst4wEmA-212" value="nombre_producto" style="ellipse;whiteSpace=wrap;html=1;" vertex="1" parent="1">
          <mxGeometry x="941.5" y="239" width="113" height="31" as="geometry" />
        </mxCell>
        <mxCell id="pE_-tYmXkupXlst4wEmA-213" value="descripcion_producto" style="ellipse;whiteSpace=wrap;html=1;" vertex="1" parent="1">
          <mxGeometry x="941.5" y="280" width="113" height="31" as="geometry" />
        </mxCell>
        <mxCell id="pE_-tYmXkupXlst4wEmA-214" value="precio_producto" style="ellipse;whiteSpace=wrap;html=1;" vertex="1" parent="1">
          <mxGeometry x="953" y="364" width="113" height="31" as="geometry" />
        </mxCell>
        <mxCell id="pE_-tYmXkupXlst4wEmA-215" value="categoria_producto" style="ellipse;whiteSpace=wrap;html=1;" vertex="1" parent="1">
          <mxGeometry x="953" y="405" width="113" height="31" as="geometry" />
        </mxCell>
        <mxCell id="pE_-tYmXkupXlst4wEmA-216" value="disponible_producto" style="ellipse;whiteSpace=wrap;html=1;" vertex="1" parent="1">
          <mxGeometry x="941.5" y="321" width="113" height="31" as="geometry" />
        </mxCell>
        <mxCell id="pE_-tYmXkupXlst4wEmA-217" style="edgeStyle=orthogonalEdgeStyle;rounded=0;orthogonalLoop=1;jettySize=auto;html=1;exitX=0.5;exitY=1;exitDx=0;exitDy=0;" edge="1" parent="1" source="pE_-tYmXkupXlst4wEmA-213" target="pE_-tYmXkupXlst4wEmA-213">
          <mxGeometry relative="1" as="geometry" />
        </mxCell>
        <mxCell id="pE_-tYmXkupXlst4wEmA-226" style="edgeStyle=orthogonalEdgeStyle;rounded=0;orthogonalLoop=1;jettySize=auto;html=1;exitX=1;exitY=0.5;exitDx=0;exitDy=0;endArrow=none;endFill=0;" edge="1" parent="1" source="6_Ajph1ug8hI6-sZuWo9-13">
          <mxGeometry relative="1" as="geometry">
            <mxPoint x="610.0000000000018" y="290.9999999999999" as="sourcePoint" />
            <mxPoint x="670" y="370" as="targetPoint" />
            <Array as="points">
              <mxPoint x="654" y="265" />
              <mxPoint x="670" y="265" />
            </Array>
          </mxGeometry>
        </mxCell>
        <mxCell id="VHF54E1nqd2V8wnNLrDC-52" style="edgeStyle=orthogonalEdgeStyle;rounded=0;orthogonalLoop=1;jettySize=auto;html=1;entryX=1;entryY=0.5;entryDx=0;entryDy=0;endArrow=none;endFill=0;exitX=0;exitY=0.5;exitDx=0;exitDy=0;" edge="1" parent="1" source="pE_-tYmXkupXlst4wEmA-163" target="pE_-tYmXkupXlst4wEmA-52">
          <mxGeometry relative="1" as="geometry">
            <Array as="points">
              <mxPoint x="751" y="461" />
              <mxPoint x="700" y="461" />
              <mxPoint x="700" y="565" />
            </Array>
            <mxPoint x="740" y="458" as="sourcePoint" />
          </mxGeometry>
        </mxCell>
        <mxCell id="pE_-tYmXkupXlst4wEmA-229" value="monto_pago" style="ellipse;whiteSpace=wrap;html=1;" vertex="1" parent="1">
          <mxGeometry x="743.5" y="581" width="113" height="31" as="geometry" />
        </mxCell>
        <mxCell id="VHF54E1nqd2V8wnNLrDC-54" style="edgeStyle=orthogonalEdgeStyle;rounded=0;orthogonalLoop=1;jettySize=auto;html=1;exitX=0;exitY=0.5;exitDx=0;exitDy=0;entryX=1;entryY=0.5;entryDx=0;entryDy=0;endArrow=none;endFill=0;" edge="1" parent="1" source="pE_-tYmXkupXlst4wEmA-230" target="pE_-tYmXkupXlst4wEmA-52">
          <mxGeometry relative="1" as="geometry">
            <Array as="points">
              <mxPoint x="700" y="532" />
              <mxPoint x="700" y="565" />
            </Array>
          </mxGeometry>
        </mxCell>
        <mxCell id="pE_-tYmXkupXlst4wEmA-230" value="metodo_pago" style="ellipse;whiteSpace=wrap;html=1;" vertex="1" parent="1">
          <mxGeometry x="740" y="516.5" width="113" height="31" as="geometry" />
        </mxCell>
        <mxCell id="pE_-tYmXkupXlst4wEmA-232" value="estado_pago" style="ellipse;whiteSpace=wrap;html=1;" vertex="1" parent="1">
          <mxGeometry x="740" y="550" width="113" height="31" as="geometry" />
        </mxCell>
        <mxCell id="VHF54E1nqd2V8wnNLrDC-53" style="edgeStyle=elbowEdgeStyle;rounded=0;orthogonalLoop=1;jettySize=auto;html=1;exitX=0;exitY=0.5;exitDx=0;exitDy=0;endArrow=none;endFill=0;" edge="1" parent="1" source="pE_-tYmXkupXlst4wEmA-233">
          <mxGeometry relative="1" as="geometry">
            <mxPoint x="640" y="565" as="targetPoint" />
            <mxPoint x="740.0000000000055" y="491" as="sourcePoint" />
            <Array as="points">
              <mxPoint x="700" y="530" />
            </Array>
          </mxGeometry>
        </mxCell>
        <mxCell id="pE_-tYmXkupXlst4wEmA-233" value="fecha_pago" style="ellipse;whiteSpace=wrap;html=1;" vertex="1" parent="1">
          <mxGeometry x="740" y="480.5" width="113" height="31" as="geometry" />
        </mxCell>
        <mxCell id="pE_-tYmXkupXlst4wEmA-238" value="nombre_servicio" style="ellipse;whiteSpace=wrap;html=1;" vertex="1" parent="1">
          <mxGeometry x="723.5" y="724" width="113" height="31" as="geometry" />
        </mxCell>
        <mxCell id="pE_-tYmXkupXlst4wEmA-239" value="descripcion_servicio" style="ellipse;whiteSpace=wrap;html=1;" vertex="1" parent="1">
          <mxGeometry x="723.5" y="763" width="113" height="31" as="geometry" />
        </mxCell>
        <mxCell id="pE_-tYmXkupXlst4wEmA-240" value="precio_servicio" style="ellipse;whiteSpace=wrap;html=1;" vertex="1" parent="1">
          <mxGeometry x="722" y="800" width="113" height="31" as="geometry" />
        </mxCell>
        <mxCell id="pE_-tYmXkupXlst4wEmA-241" value="duracion_m_servicio" style="ellipse;whiteSpace=wrap;html=1;" vertex="1" parent="1">
          <mxGeometry x="722" y="838.5" width="113" height="31" as="geometry" />
        </mxCell>
        <mxCell id="VHF54E1nqd2V8wnNLrDC-5" value="medio" style="ellipse;whiteSpace=wrap;html=1;align=center;" vertex="1" parent="1">
          <mxGeometry x="12.5" y="839" width="70" height="30" as="geometry" />
        </mxCell>
        <mxCell id="VHF54E1nqd2V8wnNLrDC-6" value="fecha_programada" style="ellipse;whiteSpace=wrap;html=1;align=center;" vertex="1" parent="1">
          <mxGeometry x="-2.5" y="803" width="110" height="28" as="geometry" />
        </mxCell>
        <mxCell id="VHF54E1nqd2V8wnNLrDC-7" value="enviado" style="ellipse;whiteSpace=wrap;html=1;align=center;" vertex="1" parent="1">
          <mxGeometry x="17.5" y="923" width="70" height="30" as="geometry" />
        </mxCell>
        <mxCell id="VHF54E1nqd2V8wnNLrDC-8" value="estado" style="ellipse;whiteSpace=wrap;html=1;align=center;" vertex="1" parent="1">
          <mxGeometry x="12.5" y="879" width="70" height="30" as="geometry" />
        </mxCell>
        <mxCell id="6_Ajph1ug8hI6-sZuWo9-2" value="apellido1_usuario" style="ellipse;whiteSpace=wrap;html=1;" vertex="1" parent="1">
          <mxGeometry x="-180" y="173" width="100" height="31" as="geometry" />
        </mxCell>
        <mxCell id="VHF54E1nqd2V8wnNLrDC-18" value="calle" style="ellipse;whiteSpace=wrap;html=1;align=center;" vertex="1" parent="1">
          <mxGeometry x="-330" y="560" width="75" height="32" as="geometry" />
        </mxCell>
        <mxCell id="6_Ajph1ug8hI6-sZuWo9-19" value="1" style="text;html=1;align=center;verticalAlign=middle;resizable=0;points=[];autosize=1;strokeColor=none;fillColor=none;" vertex="1" parent="1">
          <mxGeometry x="-160" y="532" width="30" height="30" as="geometry" />
        </mxCell>
        <mxCell id="VHF54E1nqd2V8wnNLrDC-38" value="Id_Servicio(FK)" style="ellipse;whiteSpace=wrap;html=1;align=center;fontStyle=4;" vertex="1" parent="1">
          <mxGeometry x="60" y="552.5" width="90" height="26" as="geometry" />
        </mxCell>
        <mxCell id="6_Ajph1ug8hI6-sZuWo9-30" style="edgeStyle=orthogonalEdgeStyle;rounded=0;orthogonalLoop=1;jettySize=auto;html=1;endArrow=none;endFill=0;" edge="1" parent="1" source="VHF54E1nqd2V8wnNLrDC-6">
          <mxGeometry relative="1" as="geometry">
            <mxPoint x="117.5" y="816.69" as="sourcePoint" />
            <mxPoint x="162.5" y="817" as="targetPoint" />
          </mxGeometry>
        </mxCell>
        <mxCell id="VHF54E1nqd2V8wnNLrDC-39" value="estado" style="ellipse;whiteSpace=wrap;html=1;" vertex="1" parent="1">
          <mxGeometry x="63" y="661" width="84" height="17" as="geometry" />
        </mxCell>
        <mxCell id="6_Ajph1ug8hI6-sZuWo9-32" style="edgeStyle=orthogonalEdgeStyle;rounded=0;orthogonalLoop=1;jettySize=auto;html=1;exitX=1;exitY=0.5;exitDx=0;exitDy=0;endArrow=none;endFill=0;" edge="1" parent="1" source="VHF54E1nqd2V8wnNLrDC-5">
          <mxGeometry relative="1" as="geometry">
            <mxPoint x="107.5" y="855.69" as="sourcePoint" />
            <mxPoint x="162.5" y="856" as="targetPoint" />
            <Array as="points">
              <mxPoint x="162.5" y="854" />
            </Array>
          </mxGeometry>
        </mxCell>
        <mxCell id="6_Ajph1ug8hI6-sZuWo9-34" style="edgeStyle=orthogonalEdgeStyle;rounded=0;orthogonalLoop=1;jettySize=auto;html=1;endArrow=none;endFill=0;" edge="1" parent="1" source="VHF54E1nqd2V8wnNLrDC-7">
          <mxGeometry relative="1" as="geometry">
            <mxPoint x="97.5" y="937.69" as="sourcePoint" />
            <mxPoint x="162.5" y="939" as="targetPoint" />
            <Array as="points">
              <mxPoint x="162.5" y="938" />
            </Array>
          </mxGeometry>
        </mxCell>
        <mxCell id="6_Ajph1ug8hI6-sZuWo9-35" style="edgeStyle=orthogonalEdgeStyle;rounded=0;orthogonalLoop=1;jettySize=auto;html=1;exitX=1;exitY=0.5;exitDx=0;exitDy=0;endArrow=none;endFill=0;entryX=0;entryY=0.5;entryDx=0;entryDy=0;" edge="1" parent="1" source="pE_-tYmXkupXlst4wEmA-145" target="pE_-tYmXkupXlst4wEmA-73">
          <mxGeometry relative="1" as="geometry">
            <mxPoint x="97.5" y="979.69" as="sourcePoint" />
            <mxPoint x="162.5" y="779" as="targetPoint" />
            <Array as="points">
              <mxPoint x="88" y="980" />
              <mxPoint x="162" y="980" />
              <mxPoint x="162" y="774" />
            </Array>
          </mxGeometry>
        </mxCell>
        <mxCell id="6_Ajph1ug8hI6-sZuWo9-20" value="1" style="text;html=1;align=center;verticalAlign=middle;resizable=0;points=[];autosize=1;strokeColor=none;fillColor=none;" vertex="1" parent="1">
          <mxGeometry x="-135" y="532" width="30" height="30" as="geometry" />
        </mxCell>
        <mxCell id="6_Ajph1ug8hI6-sZuWo9-36" style="edgeStyle=orthogonalEdgeStyle;rounded=0;orthogonalLoop=1;jettySize=auto;html=1;endArrow=none;endFill=0;" edge="1" parent="1" source="VHF54E1nqd2V8wnNLrDC-8">
          <mxGeometry relative="1" as="geometry">
            <mxPoint x="92.5" y="893.69" as="sourcePoint" />
            <mxPoint x="162.5" y="894" as="targetPoint" />
          </mxGeometry>
        </mxCell>
        <mxCell id="6_Ajph1ug8hI6-sZuWo9-22" value="&lt;b&gt;1:1&lt;/b&gt;" style="text;html=1;align=center;verticalAlign=middle;resizable=0;points=[];autosize=1;strokeColor=none;fillColor=none;" vertex="1" parent="1">
          <mxGeometry x="-105" y="490" width="40" height="30" as="geometry" />
        </mxCell>
        <mxCell id="VHF54E1nqd2V8wnNLrDC-45" style="rounded=0;orthogonalLoop=1;jettySize=auto;html=1;exitX=1;exitY=0.5;exitDx=0;exitDy=0;entryX=0;entryY=0.5;entryDx=0;entryDy=0;endArrow=none;endFill=0;" edge="1" parent="1" source="VHF54E1nqd2V8wnNLrDC-38">
          <mxGeometry relative="1" as="geometry">
            <mxPoint x="145" y="565" as="sourcePoint" />
            <mxPoint x="295" y="564" as="targetPoint" />
          </mxGeometry>
        </mxCell>
        <mxCell id="nqiJ-j-PXSu5-9SwA9x0-37" style="edgeStyle=orthogonalEdgeStyle;rounded=0;orthogonalLoop=1;jettySize=auto;html=1;exitX=1;exitY=0.5;exitDx=0;exitDy=0;entryX=0.413;entryY=0.033;entryDx=0;entryDy=0;endArrow=none;endFill=0;entryPerimeter=0;" edge="1" parent="1" source="pE_-tYmXkupXlst4wEmA-137" target="pE_-tYmXkupXlst4wEmA-19">
          <mxGeometry relative="1" as="geometry">
            <mxPoint x="30" y="380" as="sourcePoint" />
            <mxPoint x="115" y="514" as="targetPoint" />
            <Array as="points">
              <mxPoint x="-90" y="380" />
              <mxPoint y="380" />
              <mxPoint y="400" />
              <mxPoint x="-2" y="400" />
            </Array>
          </mxGeometry>
        </mxCell>
        <mxCell id="nqiJ-j-PXSu5-9SwA9x0-34" style="edgeStyle=orthogonalEdgeStyle;rounded=0;orthogonalLoop=1;jettySize=auto;html=1;exitX=1;exitY=0.5;exitDx=0;exitDy=0;entryX=0.5;entryY=0;entryDx=0;entryDy=0;endArrow=none;endFill=0;" edge="1" parent="1" source="pE_-tYmXkupXlst4wEmA-134" target="pE_-tYmXkupXlst4wEmA-19">
          <mxGeometry relative="1" as="geometry">
            <mxPoint x="-40" y="270" as="sourcePoint" />
            <mxPoint x="45" y="404" as="targetPoint" />
            <Array as="points">
              <mxPoint y="108" />
              <mxPoint y="404" />
            </Array>
          </mxGeometry>
        </mxCell>
        <mxCell id="6_Ajph1ug8hI6-sZuWo9-9" style="edgeStyle=orthogonalEdgeStyle;rounded=0;orthogonalLoop=1;jettySize=auto;html=1;exitX=1;exitY=0.5;exitDx=0;exitDy=0;endArrow=none;endFill=0;" edge="1" parent="1" source="6_Ajph1ug8hI6-sZuWo9-2">
          <mxGeometry relative="1" as="geometry">
            <mxPoint x="-5" y="404" as="targetPoint" />
            <Array as="points">
              <mxPoint x="-80" y="190" />
              <mxPoint y="190" />
              <mxPoint y="404" />
            </Array>
          </mxGeometry>
        </mxCell>
        <mxCell id="6_Ajph1ug8hI6-sZuWo9-10" style="edgeStyle=orthogonalEdgeStyle;rounded=0;orthogonalLoop=1;jettySize=auto;html=1;exitX=1;exitY=0.5;exitDx=0;exitDy=0;endArrow=none;endFill=0;entryX=0.5;entryY=0;entryDx=0;entryDy=0;" edge="1" parent="1" source="6_Ajph1ug8hI6-sZuWo9-3" target="pE_-tYmXkupXlst4wEmA-19">
          <mxGeometry relative="1" as="geometry">
            <mxPoint x="16" y="404" as="targetPoint" />
            <Array as="points">
              <mxPoint y="229" />
              <mxPoint y="404" />
            </Array>
          </mxGeometry>
        </mxCell>
        <mxCell id="6_Ajph1ug8hI6-sZuWo9-11" style="edgeStyle=orthogonalEdgeStyle;rounded=0;orthogonalLoop=1;jettySize=auto;html=1;exitX=1;exitY=0.5;exitDx=0;exitDy=0;entryX=0.5;entryY=0;entryDx=0;entryDy=0;endArrow=none;endFill=0;" edge="1" parent="1" source="6_Ajph1ug8hI6-sZuWo9-4" target="pE_-tYmXkupXlst4wEmA-19">
          <mxGeometry relative="1" as="geometry">
            <Array as="points">
              <mxPoint y="270" />
              <mxPoint y="404" />
            </Array>
          </mxGeometry>
        </mxCell>
        <mxCell id="6_Ajph1ug8hI6-sZuWo9-7" style="edgeStyle=orthogonalEdgeStyle;rounded=0;orthogonalLoop=1;jettySize=auto;html=1;entryX=0.5;entryY=0;entryDx=0;entryDy=0;endArrow=none;endFill=0;" edge="1" parent="1" source="6_Ajph1ug8hI6-sZuWo9-1" target="pE_-tYmXkupXlst4wEmA-19">
          <mxGeometry relative="1" as="geometry">
            <Array as="points">
              <mxPoint y="148" />
              <mxPoint y="404" />
            </Array>
          </mxGeometry>
        </mxCell>
        <mxCell id="6_Ajph1ug8hI6-sZuWo9-3" value="apellido2_usuario" style="ellipse;whiteSpace=wrap;html=1;" vertex="1" parent="1">
          <mxGeometry x="-180" y="213" width="100" height="31" as="geometry" />
        </mxCell>
        <mxCell id="6_Ajph1ug8hI6-sZuWo9-4" value="telefono_usuario" style="ellipse;whiteSpace=wrap;html=1;" vertex="1" parent="1">
          <mxGeometry x="-170" y="254" width="90" height="31" as="geometry" />
        </mxCell>
        <mxCell id="6_Ajph1ug8hI6-sZuWo9-5" value="email_usuario" style="ellipse;whiteSpace=wrap;html=1;" vertex="1" parent="1">
          <mxGeometry x="-170" y="295" width="90" height="31" as="geometry" />
        </mxCell>
        <mxCell id="nqiJ-j-PXSu5-9SwA9x0-33" value="" style="edgeStyle=orthogonalEdgeStyle;rounded=0;orthogonalLoop=1;jettySize=auto;html=1;endArrow=none;endFill=0;entryX=0;entryY=0;entryDx=0;entryDy=0;exitX=0.5;exitY=1;exitDx=0;exitDy=0;" edge="1" parent="1" source="6_Ajph1ug8hI6-sZuWo9-5" target="6_Ajph1ug8hI6-sZuWo9-6">
          <mxGeometry relative="1" as="geometry">
            <mxPoint x="-125" y="331" as="sourcePoint" />
            <mxPoint x="-35" y="404" as="targetPoint" />
          </mxGeometry>
        </mxCell>
        <mxCell id="6_Ajph1ug8hI6-sZuWo9-6" value="password_usuario" style="ellipse;whiteSpace=wrap;html=1;" vertex="1" parent="1">
          <mxGeometry x="-180" y="333" width="110" height="31" as="geometry" />
        </mxCell>
        <mxCell id="6_Ajph1ug8hI6-sZuWo9-23" style="edgeStyle=orthogonalEdgeStyle;rounded=0;orthogonalLoop=1;jettySize=auto;html=1;entryX=0.5;entryY=1;entryDx=0;entryDy=0;endArrow=none;endFill=0;exitX=0.5;exitY=0;exitDx=0;exitDy=0;" edge="1" parent="1" source="pE_-tYmXkupXlst4wEmA-71" target="pE_-tYmXkupXlst4wEmA-34">
          <mxGeometry relative="1" as="geometry">
            <mxPoint x="302.60000000000014" y="584.2" as="targetPoint" />
            <mxPoint x="290" y="660" as="sourcePoint" />
            <Array as="points">
              <mxPoint x="250" y="620" />
              <mxPoint x="379" y="620" />
            </Array>
          </mxGeometry>
        </mxCell>
        <mxCell id="nqiJ-j-PXSu5-9SwA9x0-35" style="edgeStyle=orthogonalEdgeStyle;rounded=0;orthogonalLoop=1;jettySize=auto;html=1;exitX=1;exitY=0.5;exitDx=0;exitDy=0;endArrow=none;endFill=0;" edge="1" parent="1" source="6_Ajph1ug8hI6-sZuWo9-5">
          <mxGeometry relative="1" as="geometry">
            <mxPoint x="60" y="230" as="sourcePoint" />
            <mxPoint y="400" as="targetPoint" />
            <Array as="points">
              <mxPoint y="311" />
            </Array>
          </mxGeometry>
        </mxCell>
        <mxCell id="pE_-tYmXkupXlst4wEmA-188" value="id_inventario(PK)" style="ellipse;whiteSpace=wrap;html=1;align=center;fontStyle=4;" vertex="1" parent="1">
          <mxGeometry x="694" y="19" width="105" height="26" as="geometry" />
        </mxCell>
        <mxCell id="VHF54E1nqd2V8wnNLrDC-19" value="barrio" style="ellipse;whiteSpace=wrap;html=1;align=center;" vertex="1" parent="1">
          <mxGeometry x="-330" y="603" width="75" height="32" as="geometry" />
        </mxCell>
        <mxCell id="nqiJ-j-PXSu5-9SwA9x0-36" style="edgeStyle=orthogonalEdgeStyle;rounded=0;orthogonalLoop=1;jettySize=auto;html=1;exitX=1;exitY=0.5;exitDx=0;exitDy=0;entryX=0.5;entryY=0;entryDx=0;entryDy=0;endArrow=none;endFill=0;" edge="1" parent="1" source="6_Ajph1ug8hI6-sZuWo9-6" target="pE_-tYmXkupXlst4wEmA-19">
          <mxGeometry relative="1" as="geometry">
            <mxPoint x="20" y="350" as="sourcePoint" />
            <mxPoint x="105" y="484" as="targetPoint" />
            <Array as="points">
              <mxPoint x="-70" y="350" />
              <mxPoint y="350" />
              <mxPoint y="404" />
            </Array>
          </mxGeometry>
        </mxCell>
        <mxCell id="nqiJ-j-PXSu5-9SwA9x0-10" style="edgeStyle=orthogonalEdgeStyle;rounded=0;orthogonalLoop=1;jettySize=auto;html=1;exitX=0;exitY=0.5;exitDx=0;exitDy=0;entryX=1;entryY=0.5;entryDx=0;entryDy=0;endArrow=none;endFill=0;" edge="1" parent="1" source="pE_-tYmXkupXlst4wEmA-213" target="pE_-tYmXkupXlst4wEmA-65">
          <mxGeometry relative="1" as="geometry">
            <Array as="points">
              <mxPoint x="830" y="296" />
              <mxPoint x="830" y="310" />
            </Array>
            <mxPoint x="1054" y="370" as="sourcePoint" />
            <mxPoint x="890" y="457" as="targetPoint" />
          </mxGeometry>
        </mxCell>
        <mxCell id="VHF54E1nqd2V8wnNLrDC-22" value="localidad" style="ellipse;whiteSpace=wrap;html=1;align=center;" vertex="1" parent="1">
          <mxGeometry x="-330" y="518" width="75" height="32" as="geometry" />
        </mxCell>
        <mxCell id="nqiJ-j-PXSu5-9SwA9x0-12" style="edgeStyle=orthogonalEdgeStyle;rounded=0;orthogonalLoop=1;jettySize=auto;html=1;exitX=0;exitY=0.5;exitDx=0;exitDy=0;endArrow=none;endFill=0;" edge="1" parent="1" source="pE_-tYmXkupXlst4wEmA-216">
          <mxGeometry relative="1" as="geometry">
            <Array as="points">
              <mxPoint x="830" y="337" />
              <mxPoint x="830" y="310" />
            </Array>
            <mxPoint x="1094" y="360" as="sourcePoint" />
            <mxPoint x="800" y="310" as="targetPoint" />
          </mxGeometry>
        </mxCell>
        <mxCell id="nqiJ-j-PXSu5-9SwA9x0-13" style="edgeStyle=orthogonalEdgeStyle;rounded=0;orthogonalLoop=1;jettySize=auto;html=1;exitX=0;exitY=0.5;exitDx=0;exitDy=0;entryX=1;entryY=0.5;entryDx=0;entryDy=0;endArrow=none;endFill=0;" edge="1" parent="1" source="pE_-tYmXkupXlst4wEmA-214" target="pE_-tYmXkupXlst4wEmA-65">
          <mxGeometry relative="1" as="geometry">
            <Array as="points">
              <mxPoint x="830" y="380" />
              <mxPoint x="830" y="310" />
            </Array>
            <mxPoint x="941.5" y="357" as="sourcePoint" />
            <mxPoint x="777.5" y="444" as="targetPoint" />
          </mxGeometry>
        </mxCell>
        <mxCell id="nqiJ-j-PXSu5-9SwA9x0-15" style="edgeStyle=orthogonalEdgeStyle;rounded=0;orthogonalLoop=1;jettySize=auto;html=1;exitX=0;exitY=0.5;exitDx=0;exitDy=0;entryX=1;entryY=0.5;entryDx=0;entryDy=0;endArrow=none;endFill=0;" edge="1" parent="1" source="pE_-tYmXkupXlst4wEmA-215" target="pE_-tYmXkupXlst4wEmA-65">
          <mxGeometry relative="1" as="geometry">
            <Array as="points">
              <mxPoint x="830" y="421" />
              <mxPoint x="830" y="310" />
            </Array>
            <mxPoint x="878.5" y="368" as="sourcePoint" />
            <mxPoint x="714.5" y="455" as="targetPoint" />
          </mxGeometry>
        </mxCell>
        <mxCell id="6_Ajph1ug8hI6-sZuWo9-13" value="id_producto(FK)" style="ellipse;whiteSpace=wrap;html=1;align=center;fontStyle=4;" vertex="1" parent="1">
          <mxGeometry x="520" y="251" width="94" height="29" as="geometry" />
        </mxCell>
        <mxCell id="nqiJ-j-PXSu5-9SwA9x0-16" value="fecha_pedido" style="ellipse;whiteSpace=wrap;html=1;" vertex="1" parent="1">
          <mxGeometry x="310" y="253" width="90" height="31" as="geometry" />
        </mxCell>
        <mxCell id="nqiJ-j-PXSu5-9SwA9x0-17" value="estado_pedido" style="ellipse;whiteSpace=wrap;html=1;" vertex="1" parent="1">
          <mxGeometry x="310" y="213" width="90" height="31" as="geometry" />
        </mxCell>
        <mxCell id="nqiJ-j-PXSu5-9SwA9x0-18" value="total_pedido" style="ellipse;whiteSpace=wrap;html=1;" vertex="1" parent="1">
          <mxGeometry x="310" y="290" width="90" height="31" as="geometry" />
        </mxCell>
        <mxCell id="nqiJ-j-PXSu5-9SwA9x0-21" style="edgeStyle=orthogonalEdgeStyle;rounded=0;orthogonalLoop=1;jettySize=auto;html=1;exitX=0.5;exitY=0;exitDx=0;exitDy=0;entryX=1;entryY=0.5;entryDx=0;entryDy=0;endArrow=none;endFill=0;" edge="1" parent="1" source="pE_-tYmXkupXlst4wEmA-28" target="pE_-tYmXkupXlst4wEmA-168">
          <mxGeometry relative="1" as="geometry">
            <Array as="points">
              <mxPoint x="440" y="410" />
              <mxPoint x="440" y="186" />
            </Array>
            <mxPoint x="612" y="401" as="sourcePoint" />
            <mxPoint x="460" y="290" as="targetPoint" />
          </mxGeometry>
        </mxCell>
        <mxCell id="nqiJ-j-PXSu5-9SwA9x0-23" style="edgeStyle=orthogonalEdgeStyle;rounded=0;orthogonalLoop=1;jettySize=auto;html=1;exitX=0.5;exitY=0;exitDx=0;exitDy=0;entryX=1;entryY=0.5;entryDx=0;entryDy=0;endArrow=none;endFill=0;" edge="1" parent="1" source="pE_-tYmXkupXlst4wEmA-28" target="nqiJ-j-PXSu5-9SwA9x0-17">
          <mxGeometry relative="1" as="geometry">
            <Array as="points">
              <mxPoint x="440" y="410" />
              <mxPoint x="440" y="229" />
            </Array>
            <mxPoint x="515" y="614" as="sourcePoint" />
            <mxPoint x="470" y="390" as="targetPoint" />
          </mxGeometry>
        </mxCell>
        <mxCell id="nqiJ-j-PXSu5-9SwA9x0-24" style="edgeStyle=orthogonalEdgeStyle;rounded=0;orthogonalLoop=1;jettySize=auto;html=1;exitX=0.5;exitY=0;exitDx=0;exitDy=0;entryX=1;entryY=0.5;entryDx=0;entryDy=0;endArrow=none;endFill=0;" edge="1" parent="1" source="pE_-tYmXkupXlst4wEmA-28" target="nqiJ-j-PXSu5-9SwA9x0-16">
          <mxGeometry relative="1" as="geometry">
            <Array as="points">
              <mxPoint x="440" y="410" />
              <mxPoint x="440" y="270" />
              <mxPoint x="400" y="270" />
            </Array>
            <mxPoint x="525" y="514" as="sourcePoint" />
            <mxPoint x="480" y="290" as="targetPoint" />
          </mxGeometry>
        </mxCell>
        <mxCell id="nqiJ-j-PXSu5-9SwA9x0-25" style="edgeStyle=orthogonalEdgeStyle;rounded=0;orthogonalLoop=1;jettySize=auto;html=1;exitX=0.5;exitY=0;exitDx=0;exitDy=0;entryX=1;entryY=0.5;entryDx=0;entryDy=0;endArrow=none;endFill=0;" edge="1" parent="1" source="pE_-tYmXkupXlst4wEmA-28" target="nqiJ-j-PXSu5-9SwA9x0-18">
          <mxGeometry relative="1" as="geometry">
            <Array as="points">
              <mxPoint x="440" y="410" />
              <mxPoint x="440" y="310" />
              <mxPoint x="400" y="310" />
            </Array>
            <mxPoint x="505" y="534" as="sourcePoint" />
            <mxPoint x="460" y="310" as="targetPoint" />
          </mxGeometry>
        </mxCell>
        <mxCell id="nqiJ-j-PXSu5-9SwA9x0-26" style="edgeStyle=orthogonalEdgeStyle;rounded=0;orthogonalLoop=1;jettySize=auto;html=1;exitX=0.5;exitY=0;exitDx=0;exitDy=0;entryX=1;entryY=0.5;entryDx=0;entryDy=0;endArrow=none;endFill=0;" edge="1" parent="1" source="pE_-tYmXkupXlst4wEmA-28" target="pE_-tYmXkupXlst4wEmA-170">
          <mxGeometry relative="1" as="geometry">
            <Array as="points">
              <mxPoint x="440" y="410" />
              <mxPoint x="440" y="350" />
              <mxPoint x="400" y="350" />
            </Array>
            <mxPoint x="565" y="544" as="sourcePoint" />
            <mxPoint x="520" y="320" as="targetPoint" />
          </mxGeometry>
        </mxCell>
        <mxCell id="nqiJ-j-PXSu5-9SwA9x0-27" style="edgeStyle=orthogonalEdgeStyle;rounded=0;orthogonalLoop=1;jettySize=auto;html=1;exitX=0.5;exitY=0;exitDx=0;exitDy=0;entryX=1;entryY=0.5;entryDx=0;entryDy=0;endArrow=none;endFill=0;" edge="1" parent="1" source="pE_-tYmXkupXlst4wEmA-28" target="pE_-tYmXkupXlst4wEmA-139">
          <mxGeometry relative="1" as="geometry">
            <Array as="points">
              <mxPoint x="440" y="410" />
              <mxPoint x="440" y="390" />
              <mxPoint x="405" y="390" />
            </Array>
            <mxPoint x="525" y="554" as="sourcePoint" />
            <mxPoint x="480" y="330" as="targetPoint" />
          </mxGeometry>
        </mxCell>
        <mxCell id="6_Ajph1ug8hI6-sZuWo9-16" value="1" style="text;html=1;align=center;verticalAlign=middle;resizable=0;points=[];autosize=1;strokeColor=none;fillColor=none;" vertex="1" parent="1">
          <mxGeometry x="-429" y="343" width="30" height="30" as="geometry" />
        </mxCell>
        <mxCell id="6_Ajph1ug8hI6-sZuWo9-17" value="1" style="text;html=1;align=center;verticalAlign=middle;resizable=0;points=[];autosize=1;strokeColor=none;fillColor=none;" vertex="1" parent="1">
          <mxGeometry x="-60" y="416" width="30" height="30" as="geometry" />
        </mxCell>
        <mxCell id="VHF54E1nqd2V8wnNLrDC-42" style="edgeStyle=elbowEdgeStyle;rounded=0;orthogonalLoop=1;jettySize=auto;html=1;exitX=1;exitY=0.5;exitDx=0;exitDy=0;endArrow=none;endFill=0;entryX=-0.003;entryY=0.633;entryDx=0;entryDy=0;entryPerimeter=0;" edge="1" parent="1" source="VHF54E1nqd2V8wnNLrDC-32">
          <mxGeometry relative="1" as="geometry">
            <mxPoint x="294.78999999999996" y="565.99" as="targetPoint" />
            <mxPoint x="139" y="651.5" as="sourcePoint" />
            <Array as="points">
              <mxPoint x="180" y="607" />
            </Array>
          </mxGeometry>
        </mxCell>
        <mxCell id="VHF54E1nqd2V8wnNLrDC-32" value="fecha_hora" style="ellipse;whiteSpace=wrap;html=1;" vertex="1" parent="1">
          <mxGeometry x="63" y="638.5" width="84" height="17" as="geometry" />
        </mxCell>
        <mxCell id="6_Ajph1ug8hI6-sZuWo9-18" value="1" style="text;html=1;align=center;verticalAlign=middle;resizable=0;points=[];autosize=1;strokeColor=none;fillColor=none;" vertex="1" parent="1">
          <mxGeometry x="-25" y="430" width="30" height="30" as="geometry" />
        </mxCell>
        <mxCell id="nqiJ-j-PXSu5-9SwA9x0-6" value="" style="edgeStyle=orthogonalEdgeStyle;rounded=0;orthogonalLoop=1;jettySize=auto;html=1;endArrow=none;endFill=0;exitX=1;exitY=0;exitDx=0;exitDy=0;entryX=0;entryY=0.5;entryDx=0;entryDy=0;" edge="1" parent="1" source="pE_-tYmXkupXlst4wEmA-69" target="pE_-tYmXkupXlst4wEmA-183">
          <mxGeometry relative="1" as="geometry">
            <mxPoint x="745" y="132" as="sourcePoint" />
            <mxPoint x="869" y="128" as="targetPoint" />
            <Array as="points">
              <mxPoint x="721" y="143" />
              <mxPoint x="810" y="143" />
              <mxPoint x="810" y="61" />
            </Array>
          </mxGeometry>
        </mxCell>
        <mxCell id="nqiJ-j-PXSu5-9SwA9x0-7" value="" style="edgeStyle=orthogonalEdgeStyle;rounded=0;orthogonalLoop=1;jettySize=auto;html=1;endArrow=none;endFill=0;exitX=1;exitY=0.5;exitDx=0;exitDy=0;entryX=0;entryY=0.5;entryDx=0;entryDy=0;" edge="1" parent="1" source="pE_-tYmXkupXlst4wEmA-69" target="pE_-tYmXkupXlst4wEmA-206">
          <mxGeometry relative="1" as="geometry">
            <mxPoint x="760" y="164" as="sourcePoint" />
            <mxPoint x="884" y="160" as="targetPoint" />
            <Array as="points">
              <mxPoint x="810" y="143" />
              <mxPoint x="810" y="101" />
            </Array>
          </mxGeometry>
        </mxCell>
        <mxCell id="6_Ajph1ug8hI6-sZuWo9-25" value="M" style="text;html=1;align=center;verticalAlign=middle;resizable=0;points=[];autosize=1;strokeColor=none;fillColor=none;" vertex="1" parent="1">
          <mxGeometry x="245" y="733" width="30" height="30" as="geometry" />
        </mxCell>
        <mxCell id="nqiJ-j-PXSu5-9SwA9x0-9" style="edgeStyle=orthogonalEdgeStyle;rounded=0;orthogonalLoop=1;jettySize=auto;html=1;exitX=0;exitY=0.5;exitDx=0;exitDy=0;entryX=1;entryY=0.25;entryDx=0;entryDy=0;endArrow=none;endFill=0;" edge="1" parent="1" source="pE_-tYmXkupXlst4wEmA-212">
          <mxGeometry relative="1" as="geometry">
            <Array as="points">
              <mxPoint x="830" y="255" />
              <mxPoint x="830" y="311" />
              <mxPoint x="801" y="311" />
            </Array>
            <mxPoint x="965" y="217" as="sourcePoint" />
            <mxPoint x="801" y="304" as="targetPoint" />
          </mxGeometry>
        </mxCell>
        <mxCell id="VHF54E1nqd2V8wnNLrDC-40" value="notas" style="ellipse;whiteSpace=wrap;html=1;" vertex="1" parent="1">
          <mxGeometry x="63" y="683" width="84" height="17" as="geometry" />
        </mxCell>
        <mxCell id="VHF54E1nqd2V8wnNLrDC-41" style="edgeStyle=elbowEdgeStyle;rounded=0;orthogonalLoop=1;jettySize=auto;html=1;exitX=1;exitY=0.5;exitDx=0;exitDy=0;endArrow=none;endFill=0;entryX=-0.006;entryY=0.547;entryDx=0;entryDy=0;entryPerimeter=0;" edge="1" parent="1" source="VHF54E1nqd2V8wnNLrDC-39">
          <mxGeometry relative="1" as="geometry">
            <mxPoint x="294.5799999999999" y="565.4100000000001" as="targetPoint" />
            <mxPoint x="139" y="679" as="sourcePoint" />
            <Array as="points">
              <mxPoint x="180" y="621.5" />
            </Array>
          </mxGeometry>
        </mxCell>
        <mxCell id="6_Ajph1ug8hI6-sZuWo9-1" value="nombre_usuario" style="ellipse;whiteSpace=wrap;html=1;" vertex="1" parent="1">
          <mxGeometry x="-170" y="132" width="90" height="31" as="geometry" />
        </mxCell>
        <mxCell id="pE_-tYmXkupXlst4wEmA-130" value="nombre_rol" style="ellipse;whiteSpace=wrap;html=1;align=center;" vertex="1" parent="1">
          <mxGeometry x="-442.5" y="235" width="85" height="30" as="geometry" />
        </mxCell>
        <mxCell id="nqiJ-j-PXSu5-9SwA9x0-42" value="" style="edgeStyle=orthogonalEdgeStyle;rounded=0;orthogonalLoop=1;jettySize=auto;html=1;exitX=0;exitY=0.5;exitDx=0;exitDy=0;entryX=0;entryY=0.5;entryDx=0;entryDy=0;endArrow=none;endFill=0;" edge="1" parent="1" source="pE_-tYmXkupXlst4wEmA-130" target="pE_-tYmXkupXlst4wEmA-43">
          <mxGeometry relative="1" as="geometry">
            <mxPoint x="-457" y="240" as="sourcePoint" />
            <mxPoint x="-460" y="372" as="targetPoint" />
            <Array as="points">
              <mxPoint x="-450" y="250" />
              <mxPoint x="-450" y="330" />
            </Array>
          </mxGeometry>
        </mxCell>
        <mxCell id="6_Ajph1ug8hI6-sZuWo9-21" value="1" style="text;html=1;align=center;verticalAlign=middle;resizable=0;points=[];autosize=1;strokeColor=none;fillColor=none;" vertex="1" parent="1">
          <mxGeometry x="-5" y="430" width="30" height="30" as="geometry" />
        </mxCell>
        <mxCell id="6_Ajph1ug8hI6-sZuWo9-38" value="1" style="text;html=1;align=center;verticalAlign=middle;resizable=0;points=[];autosize=1;strokeColor=none;fillColor=none;" vertex="1" parent="1">
          <mxGeometry x="755" y="270" width="30" height="30" as="geometry" />
        </mxCell>
        <mxCell id="6_Ajph1ug8hI6-sZuWo9-24" value="1" style="text;html=1;align=center;verticalAlign=middle;resizable=0;points=[];autosize=1;strokeColor=none;fillColor=none;" vertex="1" parent="1">
          <mxGeometry x="355" y="578" width="30" height="30" as="geometry" />
        </mxCell>
        <mxCell id="nqiJ-j-PXSu5-9SwA9x0-43" style="edgeStyle=orthogonalEdgeStyle;rounded=0;orthogonalLoop=1;jettySize=auto;html=1;exitX=1;exitY=0.5;exitDx=0;exitDy=0;endArrow=none;endFill=0;entryX=0;entryY=0.5;entryDx=0;entryDy=0;" edge="1" parent="1" source="pE_-tYmXkupXlst4wEmA-196" target="pE_-tYmXkupXlst4wEmA-85">
          <mxGeometry relative="1" as="geometry">
            <mxPoint x="160" y="218" as="sourcePoint" />
            <mxPoint x="215" y="171" as="targetPoint" />
            <Array as="points">
              <mxPoint x="135" y="141" />
            </Array>
          </mxGeometry>
        </mxCell>
        <mxCell id="nqiJ-j-PXSu5-9SwA9x0-44" style="edgeStyle=orthogonalEdgeStyle;rounded=0;orthogonalLoop=1;jettySize=auto;html=1;exitX=1;exitY=0.5;exitDx=0;exitDy=0;endArrow=none;endFill=0;entryX=0;entryY=0.5;entryDx=0;entryDy=0;" edge="1" parent="1" source="pE_-tYmXkupXlst4wEmA-190" target="pE_-tYmXkupXlst4wEmA-85">
          <mxGeometry relative="1" as="geometry">
            <mxPoint x="140" y="68" as="sourcePoint" />
            <mxPoint x="200" y="31" as="targetPoint" />
            <Array as="points">
              <mxPoint x="160" y="100" />
              <mxPoint x="160" y="141" />
            </Array>
          </mxGeometry>
        </mxCell>
        <mxCell id="nqiJ-j-PXSu5-9SwA9x0-46" style="edgeStyle=orthogonalEdgeStyle;rounded=0;orthogonalLoop=1;jettySize=auto;html=1;entryX=0;entryY=0.5;entryDx=0;entryDy=0;endArrow=none;endFill=0;exitX=1;exitY=0.5;exitDx=0;exitDy=0;" edge="1" parent="1" source="VHF54E1nqd2V8wnNLrDC-22" target="pE_-tYmXkupXlst4wEmA-48">
          <mxGeometry relative="1" as="geometry">
            <mxPoint x="-210" y="550" as="sourcePoint" />
            <mxPoint x="-133" y="618" as="targetPoint" />
            <Array as="points">
              <mxPoint x="-200" y="534" />
              <mxPoint x="-200" y="577" />
            </Array>
          </mxGeometry>
        </mxCell>
        <mxCell id="nqiJ-j-PXSu5-9SwA9x0-47" style="edgeStyle=orthogonalEdgeStyle;rounded=0;orthogonalLoop=1;jettySize=auto;html=1;entryX=0;entryY=0.5;entryDx=0;entryDy=0;endArrow=none;endFill=0;exitX=1;exitY=0.5;exitDx=0;exitDy=0;" edge="1" parent="1" source="VHF54E1nqd2V8wnNLrDC-18" target="pE_-tYmXkupXlst4wEmA-48">
          <mxGeometry relative="1" as="geometry">
            <mxPoint x="-240" y="570" as="sourcePoint" />
            <mxPoint x="-150" y="599" as="targetPoint" />
            <Array as="points">
              <mxPoint x="-200" y="577" />
            </Array>
          </mxGeometry>
        </mxCell>
        <mxCell id="nqiJ-j-PXSu5-9SwA9x0-48" style="edgeStyle=orthogonalEdgeStyle;rounded=0;orthogonalLoop=1;jettySize=auto;html=1;entryX=0;entryY=0.5;entryDx=0;entryDy=0;endArrow=none;endFill=0;exitX=1;exitY=0.5;exitDx=0;exitDy=0;" edge="1" parent="1" source="VHF54E1nqd2V8wnNLrDC-19" target="pE_-tYmXkupXlst4wEmA-48">
          <mxGeometry relative="1" as="geometry">
            <mxPoint x="-200" y="600" as="sourcePoint" />
            <mxPoint x="-110" y="629" as="targetPoint" />
            <Array as="points">
              <mxPoint x="-255" y="620" />
              <mxPoint x="-200" y="620" />
              <mxPoint x="-200" y="577" />
            </Array>
          </mxGeometry>
        </mxCell>
        <mxCell id="nqiJ-j-PXSu5-9SwA9x0-38" value="" style="edgeStyle=orthogonalEdgeStyle;rounded=0;orthogonalLoop=1;jettySize=auto;html=1;exitX=0;exitY=0.5;exitDx=0;exitDy=0;entryX=0;entryY=0.5;entryDx=0;entryDy=0;endArrow=none;endFill=0;" edge="1" parent="1" source="pE_-tYmXkupXlst4wEmA-127" target="pE_-tYmXkupXlst4wEmA-43">
          <mxGeometry relative="1" as="geometry">
            <mxPoint x="-400" y="213" as="sourcePoint" />
            <mxPoint x="-435" y="330" as="targetPoint" />
            <Array as="points">
              <mxPoint x="-450" y="205" />
              <mxPoint x="-450" y="330" />
            </Array>
          </mxGeometry>
        </mxCell>
        <mxCell id="6_Ajph1ug8hI6-sZuWo9-37" value="1" style="text;html=1;align=center;verticalAlign=middle;resizable=0;points=[];autosize=1;strokeColor=none;fillColor=none;" vertex="1" parent="1">
          <mxGeometry x="651" y="154" width="30" height="30" as="geometry" />
        </mxCell>
        <mxCell id="VHF54E1nqd2V8wnNLrDC-57" style="edgeStyle=orthogonalEdgeStyle;rounded=0;orthogonalLoop=1;jettySize=auto;html=1;exitX=1;exitY=0.5;exitDx=0;exitDy=0;endArrow=none;endFill=0;entryX=0;entryY=0.5;entryDx=0;entryDy=0;" edge="1" parent="1" source="pE_-tYmXkupXlst4wEmA-83" target="EyFivoTAz3Tf-S3Pduwp-5">
          <mxGeometry relative="1" as="geometry">
            <Array as="points">
              <mxPoint x="690" y="740" />
              <mxPoint x="690" y="710" />
            </Array>
            <mxPoint x="636" y="755" as="sourcePoint" />
            <mxPoint x="720" y="710" as="targetPoint" />
          </mxGeometry>
        </mxCell>
        <mxCell id="EyFivoTAz3Tf-S3Pduwp-2" value="" style="edgeStyle=orthogonalEdgeStyle;rounded=0;orthogonalLoop=1;jettySize=auto;html=1;exitX=0.5;exitY=1;exitDx=0;exitDy=0;entryX=1;entryY=0.5;entryDx=0;entryDy=0;endArrow=none;endFill=0;" edge="1" parent="1" source="pE_-tYmXkupXlst4wEmA-77" target="pE_-tYmXkupXlst4wEmA-149">
          <mxGeometry relative="1" as="geometry">
            <mxPoint x="385" y="765" as="sourcePoint" />
            <mxPoint x="370" y="923" as="targetPoint" />
            <Array as="points">
              <mxPoint x="405" y="803" />
              <mxPoint x="455" y="803" />
              <mxPoint x="455" y="938" />
            </Array>
          </mxGeometry>
        </mxCell>
        <mxCell id="VHF54E1nqd2V8wnNLrDC-1" value="especialidad" style="ellipse;whiteSpace=wrap;html=1;align=center;" vertex="1" parent="1">
          <mxGeometry x="320" y="873" width="105" height="30" as="geometry" />
        </mxCell>
        <mxCell id="EyFivoTAz3Tf-S3Pduwp-5" value="id_servicio(PK)" style="ellipse;whiteSpace=wrap;html=1;align=center;fontStyle=4;" vertex="1" parent="1">
          <mxGeometry x="727.5" y="692" width="90" height="26" as="geometry" />
        </mxCell>
        <mxCell id="EyFivoTAz3Tf-S3Pduwp-6" style="edgeStyle=orthogonalEdgeStyle;rounded=0;orthogonalLoop=1;jettySize=auto;html=1;exitX=1;exitY=0.5;exitDx=0;exitDy=0;endArrow=none;endFill=0;entryX=0;entryY=0.5;entryDx=0;entryDy=0;" edge="1" parent="1" source="pE_-tYmXkupXlst4wEmA-83" target="pE_-tYmXkupXlst4wEmA-238">
          <mxGeometry relative="1" as="geometry">
            <Array as="points">
              <mxPoint x="724" y="740" />
            </Array>
            <mxPoint x="674.5" y="783" as="sourcePoint" />
            <mxPoint x="725.4999999999986" y="763.5" as="targetPoint" />
          </mxGeometry>
        </mxCell>
        <mxCell id="EyFivoTAz3Tf-S3Pduwp-7" style="edgeStyle=orthogonalEdgeStyle;rounded=0;orthogonalLoop=1;jettySize=auto;html=1;exitX=1;exitY=0.5;exitDx=0;exitDy=0;endArrow=none;endFill=0;entryX=0;entryY=0.5;entryDx=0;entryDy=0;" edge="1" parent="1" source="pE_-tYmXkupXlst4wEmA-83" target="pE_-tYmXkupXlst4wEmA-239">
          <mxGeometry relative="1" as="geometry">
            <Array as="points">
              <mxPoint x="690" y="740" />
              <mxPoint x="690" y="779" />
              <mxPoint x="724" y="779" />
            </Array>
            <mxPoint x="684.5" y="818" as="sourcePoint" />
            <mxPoint x="720.4999999999882" y="801.4999999999998" as="targetPoint" />
          </mxGeometry>
        </mxCell>
        <mxCell id="EyFivoTAz3Tf-S3Pduwp-8" style="edgeStyle=orthogonalEdgeStyle;rounded=0;orthogonalLoop=1;jettySize=auto;html=1;exitX=1;exitY=0.5;exitDx=0;exitDy=0;endArrow=none;endFill=0;entryX=0;entryY=0.5;entryDx=0;entryDy=0;" edge="1" parent="1" source="pE_-tYmXkupXlst4wEmA-83" target="pE_-tYmXkupXlst4wEmA-240">
          <mxGeometry relative="1" as="geometry">
            <Array as="points">
              <mxPoint x="690" y="740" />
              <mxPoint x="690" y="816" />
              <mxPoint x="721" y="816" />
            </Array>
            <mxPoint x="694.5" y="813" as="sourcePoint" />
            <mxPoint x="720.4999999999882" y="841.4999999999998" as="targetPoint" />
          </mxGeometry>
        </mxCell>
        <mxCell id="EyFivoTAz3Tf-S3Pduwp-9" style="edgeStyle=orthogonalEdgeStyle;rounded=0;orthogonalLoop=1;jettySize=auto;html=1;exitX=1;exitY=0.5;exitDx=0;exitDy=0;endArrow=none;endFill=0;entryX=0;entryY=0.5;entryDx=0;entryDy=0;" edge="1" parent="1" source="pE_-tYmXkupXlst4wEmA-83" target="pE_-tYmXkupXlst4wEmA-241">
          <mxGeometry relative="1" as="geometry">
            <Array as="points">
              <mxPoint x="690" y="740" />
              <mxPoint x="690" y="854" />
            </Array>
            <mxPoint x="644.5" y="853" as="sourcePoint" />
            <mxPoint x="720.4999999999882" y="880" as="targetPoint" />
          </mxGeometry>
        </mxCell>
        <mxCell id="EyFivoTAz3Tf-S3Pduwp-10" value="&lt;b&gt;1:M&lt;/b&gt;" style="text;html=1;align=center;verticalAlign=middle;resizable=0;points=[];autosize=1;strokeColor=none;fillColor=none;" vertex="1" parent="1">
          <mxGeometry x="170" y="386" width="40" height="30" as="geometry" />
        </mxCell>
        <mxCell id="EyFivoTAz3Tf-S3Pduwp-11" value="Id_inventario(FK)" style="ellipse;whiteSpace=wrap;html=1;align=center;fontStyle=4;" vertex="1" parent="1">
          <mxGeometry x="363.5" y="67" width="101" height="26" as="geometry" />
        </mxCell>
        <mxCell id="EyFivoTAz3Tf-S3Pduwp-12" value="Id_admin(FK)" style="ellipse;whiteSpace=wrap;html=1;align=center;fontStyle=4;" vertex="1" parent="1">
          <mxGeometry x="367" y="30" width="94" height="29" as="geometry" />
        </mxCell>
        <mxCell id="EyFivoTAz3Tf-S3Pduwp-13" style="edgeStyle=orthogonalEdgeStyle;rounded=0;orthogonalLoop=1;jettySize=auto;html=1;exitX=1;exitY=0.5;exitDx=0;exitDy=0;endArrow=none;endFill=0;entryX=0.5;entryY=0;entryDx=0;entryDy=0;" edge="1" parent="1" source="EyFivoTAz3Tf-S3Pduwp-12" target="pE_-tYmXkupXlst4wEmA-86">
          <mxGeometry relative="1" as="geometry">
            <mxPoint x="464" y="22" as="sourcePoint" />
            <mxPoint x="520" y="126" as="targetPoint" />
            <Array as="points">
              <mxPoint x="470" y="45" />
              <mxPoint x="500" y="45" />
            </Array>
          </mxGeometry>
        </mxCell>
        <mxCell id="EyFivoTAz3Tf-S3Pduwp-14" style="edgeStyle=orthogonalEdgeStyle;rounded=0;orthogonalLoop=1;jettySize=auto;html=1;exitX=1;exitY=0.5;exitDx=0;exitDy=0;endArrow=none;endFill=0;entryX=0.5;entryY=0;entryDx=0;entryDy=0;" edge="1" parent="1" source="EyFivoTAz3Tf-S3Pduwp-11" target="pE_-tYmXkupXlst4wEmA-86">
          <mxGeometry relative="1" as="geometry">
            <mxPoint x="490" y="95" as="sourcePoint" />
            <mxPoint x="529" y="173" as="targetPoint" />
            <Array as="points">
              <mxPoint x="500" y="80" />
            </Array>
          </mxGeometry>
        </mxCell>
      </root>
    </mxGraphModel>
  </diagram>
</mxfile>
